#N canvas 492 75 899 888 10;
#X floatatom 408 206 5 0 0 0 - - -, f 5;
#X floatatom 494 160 5 0 0 0 - - -, f 5;
#X obj 148 115 r~ sound;
#X obj 53 134 s~ sound;
#X obj 10 314 bng 15 250 50 0 empty empty empty 17 7 0 10 -262144 -1
-1;
#X obj 34 313 bng 15 250 50 0 empty empty empty 17 7 0 10 -262144 -1
-1;
#X obj 54 254 select 68 69 70 71 72 73 74 75 76 77 78 79 80 81 82 83
84 85;
#X obj 59 316 bng 15 250 50 0 empty empty empty 17 7 0 10 -262144 -1
-1;
#X obj 85 316 bng 15 250 50 0 empty empty empty 17 7 0 10 -262144 -1
-1;
#X obj 115 316 bng 15 250 50 0 empty empty empty 17 7 0 10 -262144
-1 -1;
#X obj 145 318 bng 15 250 50 0 empty empty empty 17 7 0 10 -262144
-1 -1;
#X obj 174 319 bng 15 250 50 0 empty empty empty 17 7 0 10 -262144
-1 -1;
#X obj 202 319 bng 15 250 50 0 empty empty empty 17 7 0 10 -262144
-1 -1;
#X obj 226 321 bng 15 250 50 0 empty empty empty 17 7 0 10 -262144
-1 -1;
#X obj 250 319 bng 15 250 50 0 empty empty empty 17 7 0 10 -262144
-1 -1;
#X obj 274 319 bng 15 250 50 0 empty empty empty 17 7 0 10 -262144
-1 -1;
#X obj 302 320 bng 15 250 50 0 empty empty empty 17 7 0 10 -262144
-1 -1;
#X obj 326 320 bng 15 250 50 0 empty empty empty 17 7 0 10 -262144
-1 -1;
#X obj 349 319 bng 15 250 50 0 empty empty empty 17 7 0 10 -262144
-1 -1;
#X obj 376 319 bng 15 250 50 0 empty empty empty 17 7 0 10 -262144
-1 -1;
#X obj 402 319 bng 15 250 50 0 empty empty empty 17 7 0 10 -262144
-1 -1;
#X obj 426 319 bng 15 250 50 0 empty empty empty 17 7 0 10 -262144
-1 -1;
#X obj 450 320 bng 15 250 50 0 empty empty empty 17 7 0 10 -262144
-1 -1;
#X obj 476 319 bng 15 250 50 0 empty empty empty 17 7 0 10 -262144
-1 -1;
#X obj 386 122 sigmund~ pitch env;
#X obj 500 211 s vol;
#X obj 427 230 s pitch;
#X obj 134 77 adc~;
#X obj 65 76 osc~ 440;
#X connect 0 0 6 0;
#X connect 0 0 26 0;
#X connect 1 0 25 0;
#X connect 2 0 24 0;
#X connect 6 0 4 0;
#X connect 6 1 5 0;
#X connect 6 2 7 0;
#X connect 6 3 8 0;
#X connect 6 4 9 0;
#X connect 6 5 10 0;
#X connect 6 6 11 0;
#X connect 6 7 12 0;
#X connect 6 8 13 0;
#X connect 6 9 14 0;
#X connect 6 10 15 0;
#X connect 6 11 16 0;
#X connect 6 12 17 0;
#X connect 6 13 18 0;
#X connect 6 14 19 0;
#X connect 6 15 20 0;
#X connect 6 16 21 0;
#X connect 6 17 22 0;
#X connect 6 18 23 0;
#X connect 24 0 0 0;
#X connect 24 1 1 0;
#X connect 28 0 3 0;
