#N canvas 168 483 585 418 10;
#X obj 139 211 arduino;
#X msg 79 30 devices;
#X msg 462 158 close;
#X msg 231 22 pinMode 13 1;
#X msg 278 71 digital 13 0;
#X msg 308 102 digital 13 1;
#X msg 143 71 open 2;
#X connect 1 0 0 0;
#X connect 2 0 0 0;
#X connect 3 0 0 0;
#X connect 4 0 0 0;
#X connect 5 0 0 0;
#X connect 6 0 0 0;
