#N canvas 315 83 1573 866 10;
#X obj 412 62 inlet;
#X obj 308 324 delay;
#X floatatom 310 296 5 0 0 0 - - -, f 5;
#X obj 364 325 delay;
#X floatatom 366 297 5 0 0 0 - - -, f 5;
#X obj 424 325 delay;
#X floatatom 426 297 5 0 0 0 - - -, f 5;
#X obj 483 322 delay;
#X floatatom 485 294 5 0 0 0 - - -, f 5;
#X obj 545 322 delay;
#X floatatom 547 294 5 0 0 0 - - -, f 5;
#X obj 605 322 delay;
#X floatatom 607 294 5 0 0 0 - - -, f 5;
#X obj 664 319 delay;
#X floatatom 666 291 5 0 0 0 - - -, f 5;
#X obj 309 267 * 1;
#X obj 365 268 * 2;
#X obj 431 267 * 3;
#X obj 484 265 * 4;
#X obj 552 267 * 5;
#X obj 609 267 * 6;
#X obj 665 271 * 7;
#X obj 245 325 delay;
#X floatatom 247 297 5 0 0 0 - - -, f 5;
#X obj 246 268 * 0;
#X obj 426 104 bng 15 250 50 0 empty empty empty 17 7 0 10 -262144
-1 -1;
#X obj 736 321 delay;
#X floatatom 738 293 5 0 0 0 - - -, f 5;
#X obj 797 316 delay;
#X floatatom 799 288 5 0 0 0 - - -, f 5;
#X obj 737 273 * 8;
#X obj 798 268 * 9;
#X obj 934 322 delay;
#X floatatom 936 294 5 0 0 0 - - -, f 5;
#X obj 990 323 delay;
#X floatatom 992 295 5 0 0 0 - - -, f 5;
#X obj 1050 323 delay;
#X floatatom 1052 295 5 0 0 0 - - -, f 5;
#X obj 1109 320 delay;
#X floatatom 1111 292 5 0 0 0 - - -, f 5;
#X obj 1171 320 delay;
#X floatatom 1173 292 5 0 0 0 - - -, f 5;
#X obj 1231 320 delay;
#X floatatom 1233 292 5 0 0 0 - - -, f 5;
#X obj 1290 317 delay;
#X floatatom 1292 289 5 0 0 0 - - -, f 5;
#X obj 871 323 delay;
#X floatatom 873 295 5 0 0 0 - - -, f 5;
#X obj 1362 319 delay;
#X floatatom 1364 291 5 0 0 0 - - -, f 5;
#X obj 1423 314 delay;
#X floatatom 1425 286 5 0 0 0 - - -, f 5;
#X obj 872 266 * 10;
#X obj 935 265 * 11;
#X obj 991 266 * 12;
#X obj 1057 265 * 13;
#X obj 1110 263 * 14;
#X obj 1178 265 * 15;
#X obj 1235 265 * 16;
#X obj 1291 269 * 17;
#X obj 1363 271 * 18;
#X obj 1424 266 * 19;
#X msg 290 428 1;
#X msg 351 428 0;
#X msg 406 425 1;
#X msg 467 425 0;
#X msg 531 424 1;
#X msg 592 424 0;
#X msg 653 422 1;
#X msg 714 422 0;
#X msg 778 421 1;
#X msg 839 421 0;
#X msg 907 421 1;
#X msg 968 421 0;
#X msg 1032 420 1;
#X msg 1093 420 0;
#X msg 1154 418 1;
#X msg 1215 418 0;
#X msg 1279 417 1;
#X msg 1340 417 0;
#X msg 1400 418 1;
#X msg 1461 418 0;
#X msg 513 173 500;
#X obj 689 798 wiringPi_gpio 5 0 0;
#X connect 0 0 25 0;
#X connect 1 0 63 0;
#X connect 2 0 1 0;
#X connect 3 0 64 0;
#X connect 4 0 3 0;
#X connect 5 0 65 0;
#X connect 6 0 5 0;
#X connect 7 0 66 0;
#X connect 8 0 7 0;
#X connect 9 0 67 0;
#X connect 10 0 9 0;
#X connect 11 0 68 0;
#X connect 12 0 11 0;
#X connect 13 0 69 0;
#X connect 14 0 13 0;
#X connect 15 0 2 0;
#X connect 16 0 4 0;
#X connect 17 0 6 0;
#X connect 18 0 8 0;
#X connect 19 0 10 0;
#X connect 20 0 12 0;
#X connect 21 0 14 0;
#X connect 22 0 62 0;
#X connect 23 0 22 0;
#X connect 24 0 23 0;
#X connect 25 0 82 0;
#X connect 26 0 70 0;
#X connect 27 0 26 0;
#X connect 28 0 71 0;
#X connect 29 0 28 0;
#X connect 30 0 27 0;
#X connect 31 0 29 0;
#X connect 32 0 73 0;
#X connect 33 0 32 0;
#X connect 34 0 74 0;
#X connect 35 0 34 0;
#X connect 36 0 75 0;
#X connect 37 0 36 0;
#X connect 38 0 76 0;
#X connect 39 0 38 0;
#X connect 40 0 77 0;
#X connect 41 0 40 0;
#X connect 42 0 78 0;
#X connect 43 0 42 0;
#X connect 44 0 79 0;
#X connect 45 0 44 0;
#X connect 46 0 72 0;
#X connect 47 0 46 0;
#X connect 48 0 80 0;
#X connect 49 0 48 0;
#X connect 50 0 81 0;
#X connect 51 0 50 0;
#X connect 52 0 47 0;
#X connect 53 0 33 0;
#X connect 54 0 35 0;
#X connect 55 0 37 0;
#X connect 56 0 39 0;
#X connect 57 0 41 0;
#X connect 58 0 43 0;
#X connect 59 0 45 0;
#X connect 60 0 49 0;
#X connect 61 0 51 0;
#X connect 62 0 83 0;
#X connect 63 0 83 0;
#X connect 64 0 83 0;
#X connect 65 0 83 0;
#X connect 66 0 83 0;
#X connect 67 0 83 0;
#X connect 68 0 83 0;
#X connect 69 0 83 0;
#X connect 70 0 83 0;
#X connect 71 0 83 0;
#X connect 72 0 83 0;
#X connect 73 0 83 0;
#X connect 74 0 83 0;
#X connect 75 0 83 0;
#X connect 76 0 83 0;
#X connect 77 0 83 0;
#X connect 78 0 83 0;
#X connect 79 0 83 0;
#X connect 80 0 83 0;
#X connect 81 0 83 0;
#X connect 82 0 24 0;
#X connect 82 0 15 0;
#X connect 82 0 16 0;
#X connect 82 0 17 0;
#X connect 82 0 18 0;
#X connect 82 0 19 0;
#X connect 82 0 20 0;
#X connect 82 0 21 0;
#X connect 82 0 30 0;
#X connect 82 0 31 0;
#X connect 82 0 52 0;
#X connect 82 0 53 0;
#X connect 82 0 54 0;
#X connect 82 0 55 0;
#X connect 82 0 56 0;
#X connect 82 0 57 0;
#X connect 82 0 58 0;
#X connect 82 0 59 0;
#X connect 82 0 60 0;
#X connect 82 0 61 0;
