#N canvas 266 91 356 347 10;
#X obj 188 103 delay 3000;
#X floatatom 168 144 5 0 0 0 - - -, f 5;
#X obj 124 176 tgl 15 0 empty empty empty 17 7 0 10 -262144 -1 -1 0
1;
#X floatatom 124 209 5 0 0 0 - - -, f 5;
#X obj 127 42 inlet;
#X obj 126 238 wiringPi_gpio 21 0 0;
#X connect 0 0 1 0;
#X connect 1 0 2 0;
#X connect 2 0 3 0;
#X connect 3 0 5 0;
#X connect 4 0 2 0;
#X connect 4 0 0 0;
