#N canvas 156 164 1186 848 10;
#X obj 233 282 delay;
#X floatatom 235 254 5 0 0 0 - - -, f 5;
#X obj 289 283 delay;
#X floatatom 291 255 5 0 0 0 - - -, f 5;
#X obj 349 283 delay;
#X floatatom 351 255 5 0 0 0 - - -, f 5;
#X obj 408 280 delay;
#X floatatom 410 252 5 0 0 0 - - -, f 5;
#X obj 470 280 delay;
#X floatatom 472 252 5 0 0 0 - - -, f 5;
#X obj 530 280 delay;
#X floatatom 532 252 5 0 0 0 - - -, f 5;
#X obj 589 277 delay;
#X floatatom 591 249 5 0 0 0 - - -, f 5;
#X obj 234 225 * 1;
#X obj 290 226 * 2;
#X obj 356 225 * 3;
#X obj 409 223 * 4;
#X obj 477 225 * 5;
#X obj 534 225 * 6;
#X obj 590 229 * 7;
#X obj 260 402 vradio 20 1 0 2 empty empty empty 0 -8 0 10 -262144
-1 -1 1;
#X obj 282 402 vradio 20 1 0 2 empty empty empty 0 -8 0 10 -262144
-1 -1 1;
#X obj 304 402 vradio 20 1 0 2 empty empty empty 0 -8 0 10 -262144
-1 -1 0;
#X obj 326 402 vradio 20 1 0 2 empty empty empty 0 -8 0 10 -262144
-1 -1 1;
#X obj 348 402 vradio 20 1 0 2 empty empty empty 0 -8 0 10 -262144
-1 -1 1;
#X obj 370 402 vradio 20 1 0 2 empty empty empty 0 -8 0 10 -262144
-1 -1 1;
#X obj 392 402 vradio 20 1 0 2 empty empty empty 0 -8 0 10 -262144
-1 -1 1;
#X obj 414 402 vradio 20 1 0 2 empty empty empty 0 -8 0 10 -262144
-1 -1 1;
#X obj 437 402 vradio 20 1 0 2 empty empty empty 0 -8 0 10 -262144
-1 -1 1;
#X obj 459 402 vradio 20 1 0 2 empty empty empty 0 -8 0 10 -262144
-1 -1 1;
#X obj 170 283 delay;
#X floatatom 172 255 5 0 0 0 - - -, f 5;
#X obj 171 226 * 0;
#X obj 264 358 bng 20 250 50 0 empty empty empty 17 7 0 10 -262144
-1 -1;
#X obj 285 358 bng 20 250 50 0 empty empty empty 17 7 0 10 -262144
-1 -1;
#X obj 306 358 bng 20 250 50 0 empty empty empty 17 7 0 10 -262144
-1 -1;
#X obj 327 358 bng 20 250 50 0 empty empty empty 17 7 0 10 -262144
-1 -1;
#X obj 348 358 bng 20 250 50 0 empty empty empty 17 7 0 10 -262144
-1 -1;
#X obj 369 358 bng 20 250 50 0 empty empty empty 17 7 0 10 -262144
-1 -1;
#X obj 390 358 bng 20 250 50 0 empty empty empty 17 7 0 10 -262144
-1 -1;
#X obj 411 358 bng 20 250 50 0 empty empty empty 17 7 0 10 -262144
-1 -1;
#X obj 432 358 bng 20 250 50 0 empty empty empty 17 7 0 10 -262144
-1 -1;
#X obj 452 358 bng 20 250 50 0 empty empty empty 17 7 0 10 -262144
-1 -1;
#X obj 355 82 bng 15 250 50 0 empty empty empty 17 7 0 10 -262144 -1
-1;
#X obj 661 279 delay;
#X floatatom 663 251 5 0 0 0 - - -, f 5;
#X obj 722 274 delay;
#X floatatom 724 246 5 0 0 0 - - -, f 5;
#X obj 662 231 * 8;
#X obj 723 226 * 9;
#X obj 357 42 inlet;
#X msg 351 118 150;
#X obj 80 567 solenoid2;
#X obj 150 614 solenoid2;
#X obj 237 586 solenoid2;
#X obj 303 537 solenoid2;
#X obj 370 622 solenoid2;
#X obj 412 566 solenoid2;
#X obj 473 532 solenoid2;
#X obj 584 596 solenoid2;
#X obj 628 553 solenoid2;
#X obj 633 486 solenoid2;
#X connect 0 0 35 0;
#X connect 1 0 0 0;
#X connect 2 0 36 0;
#X connect 3 0 2 0;
#X connect 4 0 37 0;
#X connect 5 0 4 0;
#X connect 6 0 38 0;
#X connect 7 0 6 0;
#X connect 8 0 39 0;
#X connect 9 0 8 0;
#X connect 10 0 40 0;
#X connect 11 0 10 0;
#X connect 12 0 41 0;
#X connect 13 0 12 0;
#X connect 14 0 1 0;
#X connect 15 0 3 0;
#X connect 16 0 5 0;
#X connect 17 0 7 0;
#X connect 18 0 9 0;
#X connect 19 0 11 0;
#X connect 20 0 13 0;
#X connect 21 0 53 0;
#X connect 22 0 54 0;
#X connect 23 0 55 0;
#X connect 24 0 56 0;
#X connect 25 0 57 0;
#X connect 26 0 58 0;
#X connect 27 0 59 0;
#X connect 28 0 60 0;
#X connect 29 0 61 0;
#X connect 30 0 62 0;
#X connect 31 0 34 0;
#X connect 32 0 31 0;
#X connect 33 0 32 0;
#X connect 34 0 21 0;
#X connect 35 0 22 0;
#X connect 36 0 23 0;
#X connect 37 0 24 0;
#X connect 38 0 25 0;
#X connect 39 0 26 0;
#X connect 40 0 27 0;
#X connect 41 0 28 0;
#X connect 42 0 29 0;
#X connect 43 0 30 0;
#X connect 44 0 52 0;
#X connect 45 0 42 0;
#X connect 46 0 45 0;
#X connect 47 0 43 0;
#X connect 48 0 47 0;
#X connect 49 0 46 0;
#X connect 50 0 48 0;
#X connect 51 0 44 0;
#X connect 52 0 33 0;
#X connect 52 0 14 0;
#X connect 52 0 15 0;
#X connect 52 0 16 0;
#X connect 52 0 17 0;
#X connect 52 0 18 0;
#X connect 52 0 19 0;
#X connect 52 0 20 0;
#X connect 52 0 49 0;
#X connect 52 0 50 0;
