#N canvas 339 129 737 834 10;
#X obj 238 644 *~;
#X obj 275 619 vline~;
#X obj 263 742 dac~;
#X obj 263 696 *~;
#X obj 381 361 bng 15 250 50 0 empty empty empty 17 7 0 10 -262144
-1 -1;
#X obj 272 518 pack f f f f;
#X obj 253 438 bng 15 250 50 0 empty empty empty 17 7 0 10 -262144
-1 -1;
#X msg 273 556 1 \$2 \, \$4 \$3 \$2;
#X obj 388 534 pack f f;
#X obj 432 377 bng 15 250 50 0 empty empty empty 17 7 0 10 -262144
-1 -1;
#X msg 419 579 0 \$2;
#X msg 281 435 6;
#X msg 325 434 1800;
#X msg 369 431 0.7;
#X text 282 410 A;
#X text 332 407 D;
#X text 377 404 S;
#X text 462 424 R;
#X obj 339 312 delay 2000;
#X msg 463 459 700;
#X obj 198 233 mtof;
#X floatatom 197 299 5 0 0 0 - - -, f 5;
#X floatatom 367 690 5 0 0 0 - - -, f 5;
#X obj 201 369 osc~;
#X obj 209 30 inlet;
#X obj 449 638 inlet;
#X obj 218 123 != 0;
#X floatatom 184 199 5 0 0 0 - - -, f 5;
#X floatatom 210 84 5 0 0 0 - - -, f 5;
#X obj 289 268 bng 15 250 50 0 empty empty empty 17 7 0 10 -262144
-1 -1;
#X obj 260 173 sel 0 1;
#X obj 174 151 + 0;
#X obj 129 32 inlet;
#X connect 0 0 3 0;
#X connect 1 0 0 1;
#X connect 3 0 2 0;
#X connect 4 0 9 0;
#X connect 5 0 7 0;
#X connect 6 0 5 0;
#X connect 7 0 1 0;
#X connect 8 0 10 0;
#X connect 9 0 8 0;
#X connect 9 0 19 0;
#X connect 10 0 1 0;
#X connect 11 0 5 1;
#X connect 12 0 5 2;
#X connect 13 0 5 3;
#X connect 18 0 4 0;
#X connect 19 0 8 1;
#X connect 20 0 21 0;
#X connect 21 0 23 0;
#X connect 22 0 3 1;
#X connect 23 0 0 0;
#X connect 24 0 28 0;
#X connect 25 0 22 0;
#X connect 26 0 30 0;
#X connect 27 0 20 0;
#X connect 28 0 26 0;
#X connect 28 0 31 1;
#X connect 29 0 6 0;
#X connect 29 0 11 0;
#X connect 29 0 12 0;
#X connect 29 0 13 0;
#X connect 29 0 18 0;
#X connect 30 1 29 0;
#X connect 31 0 27 0;
#X connect 32 0 31 0;
