#N canvas 308 81 626 693 10;
#X floatatom 331 188 5 0 0 0 - - -, f 5;
#X floatatom 494 160 5 0 0 0 - - -, f 5;
#X obj 379 96 r~ sound;
#X obj 203 159 s~ sound;
#X obj 10 314 bng 15 250 50 0 empty empty empty 17 7 0 10 -262144 -1
-1;
#X obj 38 313 bng 15 250 50 0 empty empty empty 17 7 0 10 -262144 -1
-1;
#X obj 54 254 select 68 69 70 71 72 73 74 75 76 77 78 79 80 81 82 83
84 85;
#X obj 59 316 bng 15 250 50 0 empty empty empty 17 7 0 10 -262144 -1
-1;
#X obj 85 316 bng 15 250 50 0 empty empty empty 17 7 0 10 -262144 -1
-1;
#X obj 109 315 bng 15 250 50 0 empty empty empty 17 7 0 10 -262144
-1 -1;
#X obj 145 318 bng 15 250 50 0 empty empty empty 17 7 0 10 -262144
-1 -1;
#X obj 169 318 bng 15 250 50 0 empty empty empty 17 7 0 10 -262144
-1 -1;
#X obj 202 319 bng 15 250 50 0 empty empty empty 17 7 0 10 -262144
-1 -1;
#X obj 226 321 bng 15 250 50 0 empty empty empty 17 7 0 10 -262144
-1 -1;
#X obj 250 319 bng 15 250 50 0 empty empty empty 17 7 0 10 -262144
-1 -1;
#X obj 274 319 bng 15 250 50 0 empty empty empty 17 7 0 10 -262144
-1 -1;
#X obj 302 320 bng 15 250 50 0 empty empty empty 17 7 0 10 -262144
-1 -1;
#X obj 326 320 bng 15 250 50 0 empty empty empty 17 7 0 10 -262144
-1 -1;
#X obj 349 319 bng 15 250 50 0 empty empty empty 17 7 0 10 -262144
-1 -1;
#X obj 376 319 bng 15 250 50 0 empty empty empty 17 7 0 10 -262144
-1 -1;
#X obj 402 319 bng 15 250 50 0 empty empty empty 17 7 0 10 -262144
-1 -1;
#X obj 426 319 bng 15 250 50 0 empty empty empty 17 7 0 10 -262144
-1 -1;
#X obj 450 320 bng 15 250 50 0 empty empty empty 17 7 0 10 -262144
-1 -1;
#X obj 476 319 bng 15 250 50 0 empty empty empty 17 7 0 10 -262144
-1 -1;
#X obj 173 588 sendOSC;
#X msg 26 536 connect localhost 8000;
#X obj 386 122 sigmund~ pitch env;
#X msg 261 546 send /pitch \$1;
#X msg 298 470 send /vol \$1;
#X obj 500 211 s vol;
#X obj 300 439 r vol;
#X floatatom 172 631 5 0 0 0 - - -, f 5;
#X obj 427 230 s pitch;
#X obj 260 516 r pitch;
#X obj 171 111 adc~;
#X floatatom 237 632 5 0 0 0 - - -, f 5;
#X msg 184 543 disconnect;
#X obj 195 463 delay 60;
#X obj 178 501 bng 15 250 50 0 empty empty empty 17 7 0 10 -262144
-1 -1;
#X obj 350 693 textfile;
#X msg 356 606 add \$1;
#X msg 347 646 write C:/Users/kousuke/program/pd/tmp/log.txt cr;
#X obj 218 111 osc~ 440;
#X obj 67 421 shell;
#X msg 223 386 /home/nakaji/sh/h1.sh;
#X obj 417 169 int;
#X obj 67 59 loadbang;
#X msg 67 81 1;
#X msg 67 103 \; pd dsp \$1;
#X connect 0 0 6 0;
#X connect 0 0 32 0;
#X connect 1 0 29 0;
#X connect 2 0 26 0;
#X connect 4 0 44 0;
#X connect 5 0 44 0;
#X connect 6 0 4 0;
#X connect 6 1 5 0;
#X connect 6 2 7 0;
#X connect 6 3 8 0;
#X connect 6 4 9 0;
#X connect 6 5 10 0;
#X connect 6 6 11 0;
#X connect 6 7 12 0;
#X connect 6 8 13 0;
#X connect 6 9 14 0;
#X connect 6 10 15 0;
#X connect 6 11 16 0;
#X connect 6 12 17 0;
#X connect 6 13 18 0;
#X connect 6 14 19 0;
#X connect 6 15 20 0;
#X connect 6 16 21 0;
#X connect 6 17 22 0;
#X connect 6 18 23 0;
#X connect 7 0 44 0;
#X connect 8 0 44 0;
#X connect 9 0 44 0;
#X connect 10 0 44 0;
#X connect 11 0 44 0;
#X connect 12 0 44 0;
#X connect 13 0 44 0;
#X connect 14 0 44 0;
#X connect 15 0 44 0;
#X connect 16 0 44 0;
#X connect 17 0 44 0;
#X connect 18 0 44 0;
#X connect 19 0 44 0;
#X connect 20 0 44 0;
#X connect 21 0 44 0;
#X connect 22 0 44 0;
#X connect 24 0 31 0;
#X connect 24 1 35 0;
#X connect 25 0 24 0;
#X connect 26 0 45 0;
#X connect 26 1 1 0;
#X connect 30 0 28 0;
#X connect 33 0 27 0;
#X connect 34 0 3 0;
#X connect 34 1 3 0;
#X connect 36 0 24 0;
#X connect 37 0 38 0;
#X connect 38 0 36 0;
#X connect 40 0 41 0;
#X connect 41 0 39 0;
#X connect 44 0 43 0;
#X connect 45 0 0 0;
#X connect 46 0 47 0;
#X connect 47 0 48 0;
