#N canvas 133 73 1001 801 10;
#X floatatom 658 158 5 0 0 0 - - -;
#X floatatom 751 131 5 0 0 0 - - -;
#X obj 640 58 r~ sound;
#X obj 310 105 s~ sound;
#X msg 86 443 connect localhost 8000;
#X obj 643 93 sigmund~ pitch env;
#X msg 518 517 send /pitch \$1;
#X msg 555 441 send /vol \$1;
#X obj 757 182 s vol;
#X obj 557 410 r vol;
#X floatatom 247 657 5 0 0 0 - - -;
#X obj 684 201 s pitch;
#X obj 517 487 r pitch;
#X obj 386 51 adc~;
#X floatatom 322 649 5 0 0 0 - - -;
#X msg 413 539 disconnect;
#X obj 484 362 delay 60;
#X obj 467 400 bng 15 250 50 0 empty empty empty 17 7 0 10 -262144
-1 -1;
#X obj 607 664 textfile;
#X msg 613 577 add \$1;
#X obj 322 47 osc~ 440;
#X obj 261 361 expr if($f1 != 0 \, $f1 \, 0);
#X obj 72 247 expr if($f1 == 68 || $f1 == 69 || $f1 == 70 || $f1 ==
71 || $f1 == 72 || $f1 == 73 || $f1 == 74 || $f1 == 75 || $f1 == 76
|| $f1 == 77 || $f1 == 78 || $f1 == 79 || $f1 == 80 || $f1 == 81 ||
$f1 == 82 || $f1 == 83 || $f1 == 84 || $f1 == 85 \, $f1 \, 0);
#X obj 257 611 netsend -u -b;
#X obj 249 538 list prepend send;
#X obj 249 568 list trim;
#X msg 604 617 write ./log.txt cr;
#X obj 249 508 oscformat /poppy;
#X obj 640 124 int;
#X msg 272 417 \$1;
#X floatatom 711 326 5 0 0 0 - - -;
#X obj 733 274 > 50;
#X connect 0 0 11 0;
#X connect 0 0 22 0;
#X connect 1 0 8 0;
#X connect 1 0 31 0;
#X connect 2 0 5 0;
#X connect 4 0 23 0;
#X connect 5 0 28 0;
#X connect 5 1 1 0;
#X connect 9 0 7 0;
#X connect 12 0 6 0;
#X connect 13 0 3 0;
#X connect 13 1 3 0;
#X connect 15 0 23 0;
#X connect 16 0 17 0;
#X connect 17 0 15 0;
#X connect 19 0 26 0;
#X connect 21 0 29 0;
#X connect 22 0 21 0;
#X connect 23 0 10 0;
#X connect 23 1 14 0;
#X connect 24 0 25 0;
#X connect 25 0 23 0;
#X connect 26 0 18 0;
#X connect 27 0 24 0;
#X connect 28 0 0 0;
#X connect 29 0 27 0;
#X connect 31 0 30 0;
