#N canvas -34 186 1131 665 10;
#X obj 371 20 adc~;
#X floatatom 376 120 5 0 0 0 - - -, f 5;
#X floatatom 708 85 5 0 0 0 - - -, f 5;
#X obj 370 56 sigmund~ -hop 4096 pitch env;
#X text 864 313 b5;
#X text 721 307 a5;
#X text 784 308 as5;
#X text 653 304 gs5;
#X text 593 305 g5;
#X text 535 308 fs5;
#X text 469 311 f5;
#X text 414 304 e5;
#X text 349 313 ds5;
#X text 293 310 d5;
#X text 221 306 cs5;
#X text 166 306 c5;
#X text 425 32 feaquency -> pitch;
#X obj 371 92 int;
#X obj 726 334 bng 15 250 50 0 empty empty empty 17 7 0 10 -262144
-1 -1;
#X obj 679 599 shell;
#X obj 708 113 > 50;
#X floatatom 708 176 5 0 0 0 - - -, f 5;
#X obj 708 144 change;
#X obj 856 337 bng 15 250 50 0 empty empty empty 17 7 0 10 -262144
-1 -1;
#X obj 662 329 bng 15 250 50 0 empty empty empty 17 7 0 10 -262144
-1 -1;
#X obj 795 335 bng 15 250 50 0 empty empty empty 17 7 0 10 -262144
-1 -1;
#X obj 339 264 spigot;
#X obj 852 263 spigot;
#X obj 403 260 spigot;
#X obj 278 265 spigot;
#X obj 461 261 spigot;
#X obj 524 261 spigot;
#X obj 588 262 spigot;
#X obj 653 262 spigot;
#X obj 727 264 spigot;
#X obj 786 262 spigot;
#X obj 157 264 spigot;
#X obj 214 265 spigot;
#X text 769 146 ELIMINATE REDUNDANCY IN A NUMBER STREAM;
#X obj 922 335 bng 15 250 50 0 empty empty empty 17 7 0 10 -262144
-1 -1;
#X obj 918 265 spigot;
#X text 930 311 c6;
#X floatatom 543 182 5 0 0 0 - - -, f 5;
#X obj 209 180 sel 71 72 73 74 75 76 77 78 79 80 81 82 83;
#X obj 529 334 bng 15 250 50 0 empty empty empty 17 7 0 10 -262144
-1 -1;
#X obj 159 332 bng 15 250 50 0 empty empty empty 17 7 0 10 -262144
-1 -1;
#X obj 592 334 bng 15 250 50 0 empty empty empty 17 7 0 10 -262144
-1 -1;
#X obj 468 330 bng 15 250 50 0 empty empty empty 17 7 0 10 -262144
-1 -1;
#X obj 412 328 bng 15 250 50 0 empty empty empty 17 7 0 10 -262144
-1 -1;
#X obj 343 332 bng 15 250 50 0 empty empty empty 17 7 0 10 -262144
-1 -1;
#X obj 292 332 bng 15 250 50 0 empty empty empty 17 7 0 10 -262144
-1 -1;
#X obj 220 330 bng 15 250 50 0 empty empty empty 17 7 0 10 -262144
-1 -1;
#X msg 696 522 /usr/bin/python /home/pi/Documents/gitHub/mikke2017/pd/program/led-gpio25.py
;
#X msg 184 460 /usr/bin/python /home/pi/Documents/gitHub/mikke2017/pd/program/led-gpio16.py
;
#X msg 120 528 /usr/bin/python /home/pi/Documents/gitHub/mikke2017/pd/program/led-gpio21.py
;
#X msg 191 570 /usr/bin/python /home/pi/Documents/gitHub/mikke2017/pd/program/led-gpio23.py
;
#X msg 662 468 /usr/bin/python /home/pi/Documents/gitHub/mikke2017/pd/program/led-gpio24.py
;
#X obj 309 408 bng 15 250 50 0 empty empty empty 17 7 0 10 -262144
-1 -1;
#X obj 396 415 bng 15 250 50 0 empty empty empty 17 7 0 10 -262144
-1 -1;
#X obj 518 412 bng 15 250 50 0 empty empty empty 17 7 0 10 -262144
-1 -1;
#X obj 863 401 bng 15 250 50 0 empty empty empty 17 7 0 10 -262144
-1 -1;
#X obj 737 410 bng 15 250 50 0 empty empty empty 17 7 0 10 -262144
-1 -1;
#X connect 0 0 3 0;
#X connect 0 1 3 0;
#X connect 1 0 43 0;
#X connect 2 0 20 0;
#X connect 3 0 17 0;
#X connect 3 1 2 0;
#X connect 17 0 1 0;
#X connect 18 0 60 0;
#X connect 20 0 22 0;
#X connect 21 0 27 1;
#X connect 21 0 35 1;
#X connect 21 0 33 1;
#X connect 21 0 32 1;
#X connect 21 0 31 1;
#X connect 21 0 30 1;
#X connect 21 0 28 1;
#X connect 21 0 26 1;
#X connect 21 0 29 1;
#X connect 21 0 37 1;
#X connect 21 0 36 1;
#X connect 21 0 40 1;
#X connect 21 0 34 1;
#X connect 22 0 21 0;
#X connect 23 0 58 0;
#X connect 24 0 61 0;
#X connect 25 0 57 0;
#X connect 26 0 49 0;
#X connect 27 0 23 0;
#X connect 28 0 48 0;
#X connect 29 0 50 0;
#X connect 30 0 47 0;
#X connect 31 0 44 0;
#X connect 32 0 46 0;
#X connect 33 0 24 0;
#X connect 34 0 18 0;
#X connect 35 0 25 0;
#X connect 36 0 45 0;
#X connect 37 0 51 0;
#X connect 39 0 59 0;
#X connect 40 0 39 0;
#X connect 43 0 36 0;
#X connect 43 1 37 0;
#X connect 43 2 29 0;
#X connect 43 3 26 0;
#X connect 43 4 28 0;
#X connect 43 5 30 0;
#X connect 43 6 31 0;
#X connect 43 7 32 0;
#X connect 43 8 33 0;
#X connect 43 9 34 0;
#X connect 43 10 35 0;
#X connect 43 11 27 0;
#X connect 43 12 40 0;
#X connect 43 13 42 0;
#X connect 44 0 58 0;
#X connect 45 0 57 0;
#X connect 46 0 59 0;
#X connect 47 0 57 0;
#X connect 48 0 60 0;
#X connect 49 0 61 0;
#X connect 50 0 59 0;
#X connect 51 0 58 0;
#X connect 52 0 19 0;
#X connect 53 0 19 0;
#X connect 54 0 19 0;
#X connect 55 0 19 0;
#X connect 56 0 19 0;
#X connect 57 0 53 0;
#X connect 58 0 54 0;
#X connect 59 0 55 0;
#X connect 60 0 52 0;
#X connect 61 0 56 0;
