#N canvas 524 98 899 888 10;
#X floatatom 480 514 5 0 0 0 - - -, f 5;
#X floatatom 627 503 5 0 0 0 - - -, f 5;
#X obj 363 342 r~ sound;
#X obj 397 294 s~ sound;
#X obj 103 651 bng 15 250 50 0 empty empty empty 17 7 0 10 -262144
-1 -1;
#X obj 127 650 bng 15 250 50 0 empty empty empty 17 7 0 10 -262144
-1 -1;
#X obj 147 591 select 68 69 70 71 72 73 74 75 76 77 78 79 80 81 82
83 84 85;
#X obj 152 653 bng 15 250 50 0 empty empty empty 17 7 0 10 -262144
-1 -1;
#X obj 178 653 bng 15 250 50 0 empty empty empty 17 7 0 10 -262144
-1 -1;
#X obj 208 653 bng 15 250 50 0 empty empty empty 17 7 0 10 -262144
-1 -1;
#X obj 238 655 bng 15 250 50 0 empty empty empty 17 7 0 10 -262144
-1 -1;
#X obj 267 656 bng 15 250 50 0 empty empty empty 17 7 0 10 -262144
-1 -1;
#X obj 295 656 bng 15 250 50 0 empty empty empty 17 7 0 10 -262144
-1 -1;
#X obj 319 658 bng 15 250 50 0 empty empty empty 17 7 0 10 -262144
-1 -1;
#X obj 343 656 bng 15 250 50 0 empty empty empty 17 7 0 10 -262144
-1 -1;
#X obj 367 656 bng 15 250 50 0 empty empty empty 17 7 0 10 -262144
-1 -1;
#X obj 395 657 bng 15 250 50 0 empty empty empty 17 7 0 10 -262144
-1 -1;
#X obj 419 657 bng 15 250 50 0 empty empty empty 17 7 0 10 -262144
-1 -1;
#X obj 442 656 bng 15 250 50 0 empty empty empty 17 7 0 10 -262144
-1 -1;
#X obj 469 656 bng 15 250 50 0 empty empty empty 17 7 0 10 -262144
-1 -1;
#X obj 495 656 bng 15 250 50 0 empty empty empty 17 7 0 10 -262144
-1 -1;
#X obj 519 656 bng 15 250 50 0 empty empty empty 17 7 0 10 -262144
-1 -1;
#X obj 543 657 bng 15 250 50 0 empty empty empty 17 7 0 10 -262144
-1 -1;
#X obj 569 656 bng 15 250 50 0 empty empty empty 17 7 0 10 -262144
-1 -1;
#X obj 479 459 sigmund~ pitch env;
#X obj 635 555 s vol;
#X obj 418 245 osc~ 440;
#X obj 48 81 bng 15 250 50 0 empty empty empty 17 7 0 10 -262144 -1
-1;
#X obj 118 126 277.1;
#X obj 116 82 bng 15 250 50 0 empty empty empty 17 7 0 10 -262144 -1
-1;
#X obj 172 126 293.6;
#X obj 230 126 311.1;
#X obj 298 131 329.6;
#X obj 356 131 349.2;
#X obj 410 129 369.9;
#X obj 469 133 391.9;
#X obj 532 131 415.3;
#X obj 588 133 440;
#X obj 634 136 466.1;
#X obj 697 138 493.8;
#X obj 760 138 523.2;
#X obj 176 75 bng 15 250 50 0 empty empty empty 17 7 0 10 -262144 -1
-1;
#X obj 232 84 bng 15 250 50 0 empty empty empty 17 7 0 10 -262144 -1
-1;
#X obj 299 84 bng 15 250 50 0 empty empty empty 17 7 0 10 -262144 -1
-1;
#X obj 365 90 bng 15 250 50 0 empty empty empty 17 7 0 10 -262144 -1
-1;
#X obj 415 89 bng 15 250 50 0 empty empty empty 17 7 0 10 -262144 -1
-1;
#X obj 477 92 bng 15 250 50 0 empty empty empty 17 7 0 10 -262144 -1
-1;
#X obj 536 88 bng 15 250 50 0 empty empty empty 17 7 0 10 -262144 -1
-1;
#X obj 590 93 bng 15 250 50 0 empty empty empty 17 7 0 10 -262144 -1
-1;
#X obj 638 93 bng 15 250 50 0 empty empty empty 17 7 0 10 -262144 -1
-1;
#X obj 693 96 bng 15 250 50 0 empty empty empty 17 7 0 10 -262144 -1
-1;
#X obj 769 104 bng 15 250 50 0 empty empty empty 17 7 0 10 -262144
-1 -1;
#X text 579 67 A4;
#X text 496 436 exchange freaquency to MIDInote number;
#X obj 172 23 277.1;
#X obj 145 6 bng 15 250 50 0 empty empty empty 17 7 0 10 -262144 -1
-1;
#X floatatom 244 56 5 0 0 0 - - -, f 5;
#X obj 183 328 -;
#X obj 57 127 261.6;
#X obj 144 261 261.6;
#X obj 220 260 277.1;
#X floatatom 183 410 5 0 0 0 - - -, f 5;
#X obj 181 361 * -1;
#X obj 190 210 bng 15 250 50 0 empty empty empty 17 7 0 10 -262144
-1 -1;
#X obj 150 453 random;
#X obj 111 497 +;
#X floatatom 112 535 5 0 0 0 - - -, f 5;
#X obj 556 332 adc~ 1;
#X obj 533 553 s pitch;
#X msg 120 734 setup_wiringPi;
#X obj 102 786 wiringPi_gpio 25 0 1;
#X obj 261 779 wiringPi_gpio 25 0 1;
#X connect 0 0 6 0;
#X connect 0 0 68 0;
#X connect 1 0 25 0;
#X connect 6 0 4 0;
#X connect 6 1 5 0;
#X connect 6 2 7 0;
#X connect 6 3 8 0;
#X connect 6 4 9 0;
#X connect 6 5 10 0;
#X connect 6 6 11 0;
#X connect 6 7 12 0;
#X connect 6 8 13 0;
#X connect 6 9 14 0;
#X connect 6 10 15 0;
#X connect 6 11 16 0;
#X connect 6 12 17 0;
#X connect 6 13 18 0;
#X connect 6 14 19 0;
#X connect 6 15 20 0;
#X connect 6 16 21 0;
#X connect 6 17 22 0;
#X connect 6 18 23 0;
#X connect 24 0 0 0;
#X connect 24 1 1 0;
#X connect 26 0 3 0;
#X connect 27 0 58 0;
#X connect 28 0 26 0;
#X connect 29 0 28 0;
#X connect 30 0 26 0;
#X connect 31 0 26 0;
#X connect 32 0 26 0;
#X connect 33 0 26 0;
#X connect 34 0 26 0;
#X connect 35 0 26 0;
#X connect 36 0 26 0;
#X connect 37 0 26 0;
#X connect 38 0 26 0;
#X connect 39 0 26 0;
#X connect 40 0 26 0;
#X connect 41 0 30 0;
#X connect 42 0 31 0;
#X connect 43 0 32 0;
#X connect 44 0 33 0;
#X connect 45 0 34 0;
#X connect 46 0 35 0;
#X connect 47 0 36 0;
#X connect 48 0 37 0;
#X connect 49 0 38 0;
#X connect 50 0 39 0;
#X connect 51 0 40 0;
#X connect 54 0 56 0;
#X connect 55 0 54 0;
#X connect 57 0 62 0;
#X connect 58 0 26 0;
#X connect 59 0 57 0;
#X connect 59 0 65 1;
#X connect 60 0 57 1;
#X connect 61 0 64 1;
#X connect 62 0 61 0;
#X connect 63 0 60 0;
#X connect 63 0 59 0;
#X connect 63 0 64 0;
#X connect 64 0 65 0;
#X connect 65 0 66 0;
#X connect 67 0 24 0;
