#N canvas 485 63 1150 924 10;
#X obj 371 20 adc~;
#X floatatom 376 120 5 0 0 0 - - -, f 5;
#X floatatom 708 85 5 0 0 0 - - -, f 5;
#X obj 370 56 sigmund~ -hop 4096 pitch env;
#X text 864 313 b5;
#X text 721 307 a5;
#X text 784 308 as5;
#X text 653 304 gs5;
#X text 593 305 g5;
#X text 535 308 fs5;
#X text 469 311 f5;
#X text 414 304 e5;
#X text 349 313 ds5;
#X text 293 310 d5;
#X text 221 306 cs5;
#X text 166 306 c5;
#X text 425 32 feaquency -> pitch;
#X obj 371 92 int;
#X obj 726 334 bng 15 250 50 0 empty empty empty 17 7 0 10 -262144
-1 -1;
#X obj 708 113 > 50;
#X floatatom 708 176 5 0 0 0 - - -, f 5;
#X obj 708 144 change;
#X obj 856 337 bng 15 250 50 0 empty empty empty 17 7 0 10 -262144
-1 -1;
#X obj 662 329 bng 15 250 50 0 empty empty empty 17 7 0 10 -262144
-1 -1;
#X obj 795 335 bng 15 250 50 0 empty empty empty 17 7 0 10 -262144
-1 -1;
#X obj 339 264 spigot;
#X obj 852 263 spigot;
#X obj 403 260 spigot;
#X obj 278 265 spigot;
#X obj 461 261 spigot;
#X obj 524 261 spigot;
#X obj 588 262 spigot;
#X obj 653 262 spigot;
#X obj 727 264 spigot;
#X obj 786 262 spigot;
#X obj 157 264 spigot;
#X obj 214 265 spigot;
#X text 769 146 ELIMINATE REDUNDANCY IN A NUMBER STREAM;
#X obj 922 335 bng 15 250 50 0 empty empty empty 17 7 0 10 -262144
-1 -1;
#X obj 918 265 spigot;
#X text 930 311 c6;
#X floatatom 543 182 5 0 0 0 - - -, f 5;
#X obj 209 180 sel 71 72 73 74 75 76 77 78 79 80 81 82 83;
#X obj 529 334 bng 15 250 50 0 empty empty empty 17 7 0 10 -262144
-1 -1;
#X obj 159 332 bng 15 250 50 0 empty empty empty 17 7 0 10 -262144
-1 -1;
#X obj 592 334 bng 15 250 50 0 empty empty empty 17 7 0 10 -262144
-1 -1;
#X obj 468 330 bng 15 250 50 0 empty empty empty 17 7 0 10 -262144
-1 -1;
#X obj 412 328 bng 15 250 50 0 empty empty empty 17 7 0 10 -262144
-1 -1;
#X obj 343 332 bng 15 250 50 0 empty empty empty 17 7 0 10 -262144
-1 -1;
#X obj 292 332 bng 15 250 50 0 empty empty empty 17 7 0 10 -262144
-1 -1;
#X obj 220 330 bng 15 250 50 0 empty empty empty 17 7 0 10 -262144
-1 -1;
#X obj 309 408 bng 15 250 50 0 empty empty empty 17 7 0 10 -262144
-1 -1;
#X obj 396 415 bng 15 250 50 0 empty empty empty 17 7 0 10 -262144
-1 -1;
#X obj 518 412 bng 15 250 50 0 empty empty empty 17 7 0 10 -262144
-1 -1;
#X obj 863 401 bng 15 250 50 0 empty empty empty 17 7 0 10 -262144
-1 -1;
#X obj 737 410 bng 15 250 50 0 empty empty empty 17 7 0 10 -262144
-1 -1;
#X obj 846 591 wiringPi_gpio 6 0 0;
#X obj 883 461 delay 3000;
#X floatatom 888 497 5 0 0 0 - - -, f 5;
#X obj 844 529 tgl 15 0 empty empty empty 17 7 0 10 -262144 -1 -1 0
1;
#X floatatom 844 562 5 0 0 0 - - -, f 5;
#N canvas 241 271 450 398 ptn_1 0;
#X obj 140 264 tgl 15 0 empty empty empty 17 7 0 10 -262144 -1 -1 0
1;
#X floatatom 139 304 5 0 0 0 - - -, f 5;
#X obj 139 325 wiringPi_gpio 27 0 1;
#X obj 171 219 delay 150;
#X obj 154 172 metro 500;
#X obj 162 121 tgl 15 0 empty empty empty 17 7 0 10 -262144 -1 -1 0
1;
#X obj 205 65 delay 3000;
#X obj 154 32 bng 15 250 50 0 empty empty empty 17 7 0 10 -262144 -1
-1;
#X connect 0 0 1 0;
#X connect 1 0 2 0;
#X connect 3 0 0 0;
#X connect 4 0 3 0;
#X connect 4 0 0 0;
#X connect 5 0 4 0;
#X connect 6 0 5 0;
#X connect 7 0 6 0;
#X connect 7 0 5 0;
#X restore 105 86 pd ptn_1;
#X text 878 436 GPIO25 LED;
#X obj 148 821 *~;
#X obj 185 796 vline~;
#X obj 50 729 osc~ 440;
#X obj 173 919 dac~;
#X obj 173 873 *~;
#X obj 199 445 bng 15 250 50 0 empty empty empty 17 7 0 10 -262144
-1 -1;
#X obj 291 538 bng 15 250 50 0 empty empty empty 17 7 0 10 -262144
-1 -1;
#X obj 182 695 pack f f f f;
#X obj 163 615 bng 15 250 50 0 empty empty empty 17 7 0 10 -262144
-1 -1;
#X msg 183 733 1 \$2 \, \$4 \$3 \$2;
#X obj 298 711 pack f f;
#X obj 342 554 bng 15 250 50 0 empty empty empty 17 7 0 10 -262144
-1 -1;
#X msg 329 756 0 \$2;
#X msg 191 612 6;
#X msg 235 611 1800;
#X msg 279 608 0.7;
#X text 192 587 A;
#X text 242 584 D;
#X text 287 581 S;
#X text 372 601 R;
#X obj 249 489 delay 2000;
#X msg 373 636 700;
#X obj 564 767 415.3;
#X obj 620 769 440;
#X obj 666 772 466.1;
#X obj 729 774 493.8;
#X obj 792 774 523.2;
#X obj 51 434 mtof;
#X msg 46 357 60;
#X floatatom 46 492 5 0 0 0 - - -, f 5;
#X obj 324 795 vsl 15 128 0 1 0 0 empty empty empty 0 -9 0 10 -262144
-1 -1 0 1;
#X floatatom 261 845 5 0 0 0 - - -, f 5;
#X obj 519 494 rythum1;
#X connect 0 0 3 0;
#X connect 0 1 3 0;
#X connect 1 0 42 0;
#X connect 2 0 19 0;
#X connect 3 0 17 0;
#X connect 3 1 2 0;
#X connect 17 0 1 0;
#X connect 18 0 54 0;
#X connect 19 0 21 0;
#X connect 20 0 26 1;
#X connect 20 0 34 1;
#X connect 20 0 32 1;
#X connect 20 0 31 1;
#X connect 20 0 30 1;
#X connect 20 0 29 1;
#X connect 20 0 27 1;
#X connect 20 0 25 1;
#X connect 20 0 28 1;
#X connect 20 0 36 1;
#X connect 20 0 35 1;
#X connect 20 0 39 1;
#X connect 20 0 33 1;
#X connect 21 0 20 0;
#X connect 22 0 52 0;
#X connect 23 0 55 0;
#X connect 24 0 51 0;
#X connect 25 0 48 0;
#X connect 26 0 22 0;
#X connect 27 0 47 0;
#X connect 28 0 49 0;
#X connect 29 0 46 0;
#X connect 30 0 43 0;
#X connect 31 0 45 0;
#X connect 32 0 23 0;
#X connect 33 0 18 0;
#X connect 34 0 24 0;
#X connect 35 0 44 0;
#X connect 36 0 50 0;
#X connect 38 0 53 0;
#X connect 39 0 38 0;
#X connect 42 0 35 0;
#X connect 42 1 36 0;
#X connect 42 2 28 0;
#X connect 42 3 25 0;
#X connect 42 4 27 0;
#X connect 42 5 29 0;
#X connect 42 6 30 0;
#X connect 42 7 31 0;
#X connect 42 8 32 0;
#X connect 42 9 33 0;
#X connect 42 10 34 0;
#X connect 42 11 26 0;
#X connect 42 12 39 0;
#X connect 42 13 41 0;
#X connect 43 0 52 0;
#X connect 44 0 51 0;
#X connect 45 0 53 0;
#X connect 46 0 51 0;
#X connect 47 0 54 0;
#X connect 48 0 55 0;
#X connect 49 0 53 0;
#X connect 50 0 52 0;
#X connect 53 0 57 0;
#X connect 53 0 59 0;
#X connect 53 0 95 0;
#X connect 57 0 58 0;
#X connect 58 0 59 0;
#X connect 59 0 60 0;
#X connect 60 0 56 0;
#X connect 63 0 67 0;
#X connect 64 0 63 1;
#X connect 65 0 63 0;
#X connect 67 0 66 0;
#X connect 68 0 71 0;
#X connect 68 0 76 0;
#X connect 68 0 77 0;
#X connect 68 0 78 0;
#X connect 68 0 83 0;
#X connect 69 0 74 0;
#X connect 70 0 72 0;
#X connect 71 0 70 0;
#X connect 72 0 64 0;
#X connect 73 0 75 0;
#X connect 74 0 73 0;
#X connect 74 0 84 0;
#X connect 75 0 64 0;
#X connect 76 0 70 1;
#X connect 77 0 70 2;
#X connect 78 0 70 3;
#X connect 83 0 69 0;
#X connect 84 0 73 1;
#X connect 90 0 92 0;
#X connect 91 0 90 0;
#X connect 91 0 68 0;
#X connect 92 0 65 0;
#X connect 93 0 94 0;
#X connect 94 0 67 1;
