#N canvas 117 110 1723 924 10;
#X obj 906 57 adc~;
#X floatatom 911 157 5 0 0 0 - - -, f 5;
#X floatatom 1243 122 5 0 0 0 - - -, f 5;
#X obj 905 93 sigmund~ -hop 4096 pitch env;
#X text 960 69 feaquency -> pitch;
#X obj 906 129 int;
#X obj 1243 150 > 50;
#X floatatom 1243 213 5 0 0 0 - - -, f 5;
#X obj 1243 181 change;
#X obj 874 301 spigot;
#X obj 938 297 spigot;
#X obj 813 302 spigot;
#X obj 996 298 spigot;
#X obj 1059 298 spigot;
#X obj 1123 299 spigot;
#X obj 692 301 spigot;
#X obj 749 302 spigot;
#X text 1304 183 ELIMINATE REDUNDANCY IN A NUMBER STREAM;
#X floatatom 1016 230 5 0 0 0 - - -, f 5;
#X obj 1064 371 bng 15 250 50 0 empty empty empty 17 7 0 10 -262144
-1 -1;
#X obj 694 369 bng 15 250 50 0 empty empty empty 17 7 0 10 -262144
-1 -1;
#X obj 1127 371 bng 15 250 50 0 empty empty empty 17 7 0 10 -262144
-1 -1;
#X obj 1003 367 bng 15 250 50 0 empty empty empty 17 7 0 10 -262144
-1 -1;
#X obj 947 365 bng 15 250 50 0 empty empty empty 17 7 0 10 -262144
-1 -1;
#X obj 878 369 bng 15 250 50 0 empty empty empty 17 7 0 10 -262144
-1 -1;
#X obj 827 369 bng 15 250 50 0 empty empty empty 17 7 0 10 -262144
-1 -1;
#X obj 755 367 bng 15 250 50 0 empty empty empty 17 7 0 10 -262144
-1 -1;
#X obj 505 482 bng 15 250 50 0 empty empty empty 17 7 0 10 -262144
-1 -1;
#X obj 563 477 bng 15 250 50 0 empty empty empty 17 7 0 10 -262144
-1 -1;
#X obj 919 478 bng 15 250 50 0 empty empty empty 17 7 0 10 -262144
-1 -1;
#X obj 1218 494 bng 15 250 50 0 empty empty empty 17 7 0 10 -262144
-1 -1;
#X obj 1146 491 bng 15 250 50 0 empty empty empty 17 7 0 10 -262144
-1 -1;
#X text 701 343 A4;
#X text 756 343 E5;
#X text 884 350 G5;
#X text 828 347 D5;
#X text 949 341 A5;
#X text 1004 348 C6;
#X text 1070 345 D6;
#X text 1128 342 E6;
#X obj 1018 488 bng 15 250 50 0 empty empty empty 17 7 0 10 -262144
-1 -1;
#X obj 722 450 bng 15 250 50 0 empty empty empty 17 7 0 10 -262144
-1 -1;
#X obj 815 479 bng 15 250 50 0 empty empty empty 17 7 0 10 -262144
-1 -1;
#X obj 744 217 sel 69 74 76 79 81 84 86 88;
#X obj 852 568 rythum1;
#X obj 1067 541 rythum2;
#X obj 1293 536 rythum3;
#X obj 798 626 led-gpio23;
#X obj 1271 580 led-gpio4;
#X obj 648 556 motor-gpio5;
#X obj 636 500 bng 15 250 50 0 empty empty empty 17 7 0 10 -262144
-1 -1;
#X obj 864 482 bng 15 250 50 0 empty empty empty 17 7 0 10 -262144
-1 -1;
#X obj 1053 480 bng 15 250 50 0 empty empty empty 17 7 0 10 -262144
-1 -1;
#X obj 1253 467 bng 15 250 50 0 empty empty empty 17 7 0 10 -262144
-1 -1;
#X obj 1148 549 led-gpio4;
#X obj 497 606 led-gpio24;
#X obj 716 510 led-gpio24;
#X obj 556 545 led-gpio24;
#X obj 1041 588 led-gpio23;
#X obj 926 537 led-gpio23;
#X connect 0 0 3 0;
#X connect 0 1 3 0;
#X connect 1 0 43 0;
#X connect 2 0 6 0;
#X connect 3 0 5 0;
#X connect 3 1 2 0;
#X connect 5 0 1 0;
#X connect 6 0 8 0;
#X connect 7 0 14 1;
#X connect 7 0 13 1;
#X connect 7 0 12 1;
#X connect 7 0 10 1;
#X connect 7 0 9 1;
#X connect 7 0 11 1;
#X connect 7 0 16 1;
#X connect 7 0 15 1;
#X connect 8 0 7 0;
#X connect 9 0 24 0;
#X connect 10 0 23 0;
#X connect 11 0 25 0;
#X connect 12 0 22 0;
#X connect 13 0 19 0;
#X connect 14 0 21 0;
#X connect 15 0 20 0;
#X connect 16 0 26 0;
#X connect 19 0 31 0;
#X connect 20 0 27 0;
#X connect 21 0 30 0;
#X connect 21 0 53 0;
#X connect 22 0 40 0;
#X connect 22 0 52 0;
#X connect 23 0 29 0;
#X connect 24 0 42 0;
#X connect 24 0 51 0;
#X connect 25 0 41 0;
#X connect 26 0 28 0;
#X connect 26 0 50 0;
#X connect 27 0 55 0;
#X connect 28 0 57 0;
#X connect 29 0 59 0;
#X connect 30 0 48 0;
#X connect 31 0 54 0;
#X connect 40 0 58 0;
#X connect 41 0 56 0;
#X connect 42 0 47 0;
#X connect 43 0 15 0;
#X connect 43 1 16 0;
#X connect 43 2 11 0;
#X connect 43 3 9 0;
#X connect 43 4 10 0;
#X connect 43 5 12 0;
#X connect 43 6 13 0;
#X connect 43 7 14 0;
#X connect 43 8 18 0;
#X connect 50 0 49 0;
#X connect 51 0 44 0;
#X connect 52 0 45 0;
#X connect 53 0 46 0;
