#N canvas 84 99 1131 665 10;
#X obj 452 16 adc~;
#X floatatom 457 116 5 0 0 0 - - -, f 5;
#X floatatom 830 93 5 0 0 0 - - -, f 5;
#X obj 451 52 sigmund~ -hop 4096 pitch env;
#X text 736 326 c6;
#X text 689 322 b5;
#X text 590 326 a5;
#X text 634 325 as5;
#X text 539 323 gs5;
#X obj 499 347 tgl 15 0 empty empty empty 17 7 0 10 -262144 -1 -1 0
1;
#X text 499 327 g5;
#X obj 447 347 tgl 15 0 empty empty empty 17 7 0 10 -262144 -1 -1 0
1;
#X text 447 327 fs5;
#X obj 401 348 tgl 15 0 empty empty empty 17 7 0 10 -262144 -1 -1 0
1;
#X text 401 328 f5;
#X obj 356 347 tgl 15 0 empty empty empty 17 7 0 10 -262144 -1 -1 0
1;
#X text 356 327 e5;
#X obj 312 350 tgl 15 0 empty empty empty 17 7 0 10 -262144 -1 -1 0
1;
#X text 312 330 ds5;
#X obj 272 350 tgl 15 0 empty empty empty 17 7 0 10 -262144 -1 -1 0
1;
#X text 272 330 d5;
#X obj 227 349 tgl 15 0 empty empty empty 17 7 0 10 -262144 -1 -1 0
1;
#X text 227 329 cs5;
#X obj 183 348 tgl 15 0 empty empty empty 17 7 0 10 -262144 -1 -1 0
1;
#X text 182 327 c5;
#X obj 128 624 shell;
#X msg 43 526 /usr/bin/ruby /home/pi/Documents/gitHub/mikke2017/pd/program/led-test.rb
;
#X msg 318 576 /usr/bin/ruby /home/pi/Documents/gitHub/mikke2017/pd/program/led-stop.rb
;
#X text 506 28 feaquency -> pitch;
#X obj 452 88 int;
#X obj 595 353 bng 15 250 50 0 empty empty empty 17 7 0 10 -262144
-1 -1;
#X obj 494 484 shell;
#X msg 389 396 /usr/bin/python /home/pi/Documents/gitHub/mikke2017/pd/program/led-high.py
;
#X obj 830 121 > 50;
#X floatatom 830 184 5 0 0 0 - - -, f 5;
#X obj 830 152 change;
#X obj 690 350 bng 15 250 50 0 empty empty empty 17 7 0 10 -262144
-1 -1;
#X obj 329 185 sel 71 72 73 74 75 76 77 78 79 80 81 82 83;
#X obj 739 350 bng 15 250 50 0 empty empty empty 17 7 0 10 -262144
-1 -1;
#X obj 548 348 bng 15 250 50 0 empty empty empty 17 7 0 10 -262144
-1 -1;
#X obj 638 353 bng 15 250 50 0 empty empty empty 17 7 0 10 -262144
-1 -1;
#X floatatom 654 210 5 0 0 0 - - -, f 5;
#X obj 616 253 spigot;
#X connect 0 0 3 0;
#X connect 0 1 3 0;
#X connect 1 0 37 0;
#X connect 2 0 33 0;
#X connect 3 0 29 0;
#X connect 3 1 2 0;
#X connect 26 0 25 0;
#X connect 27 0 25 0;
#X connect 29 0 1 0;
#X connect 30 0 32 0;
#X connect 32 0 31 0;
#X connect 33 0 35 0;
#X connect 34 0 42 1;
#X connect 35 0 34 0;
#X connect 37 9 42 0;
#X connect 37 13 41 0;
#X connect 42 0 30 0;
