#N canvas 102 116 1150 965 10;
#X obj 371 20 adc~;
#X floatatom 376 120 5 0 0 0 - - -, f 5;
#X floatatom 708 85 5 0 0 0 - - -, f 5;
#X obj 370 56 sigmund~ -hop 4096 pitch env;
#X text 864 313 b5;
#X text 721 307 a5;
#X text 784 308 as5;
#X text 653 304 gs5;
#X text 593 305 g5;
#X text 535 308 fs5;
#X text 469 311 f5;
#X text 414 304 e5;
#X text 349 313 ds5;
#X text 293 310 d5;
#X text 221 306 cs5;
#X text 166 306 c5;
#X text 425 32 feaquency -> pitch;
#X obj 371 92 int;
#X obj 726 334 bng 15 250 50 0 empty empty empty 17 7 0 10 -262144
-1 -1;
#X obj 683 898 shell;
#X obj 708 113 > 50;
#X floatatom 708 176 5 0 0 0 - - -, f 5;
#X obj 708 144 change;
#X obj 856 337 bng 15 250 50 0 empty empty empty 17 7 0 10 -262144
-1 -1;
#X obj 662 329 bng 15 250 50 0 empty empty empty 17 7 0 10 -262144
-1 -1;
#X obj 795 335 bng 15 250 50 0 empty empty empty 17 7 0 10 -262144
-1 -1;
#X obj 339 264 spigot;
#X obj 852 263 spigot;
#X obj 403 260 spigot;
#X obj 278 265 spigot;
#X obj 461 261 spigot;
#X obj 524 261 spigot;
#X obj 588 262 spigot;
#X obj 653 262 spigot;
#X obj 727 264 spigot;
#X obj 786 262 spigot;
#X obj 157 264 spigot;
#X obj 214 265 spigot;
#X text 769 146 ELIMINATE REDUNDANCY IN A NUMBER STREAM;
#X obj 922 335 bng 15 250 50 0 empty empty empty 17 7 0 10 -262144
-1 -1;
#X obj 918 265 spigot;
#X text 930 311 c6;
#X floatatom 543 182 5 0 0 0 - - -, f 5;
#X obj 209 180 sel 71 72 73 74 75 76 77 78 79 80 81 82 83;
#X obj 529 334 bng 15 250 50 0 empty empty empty 17 7 0 10 -262144
-1 -1;
#X obj 159 332 bng 15 250 50 0 empty empty empty 17 7 0 10 -262144
-1 -1;
#X obj 592 334 bng 15 250 50 0 empty empty empty 17 7 0 10 -262144
-1 -1;
#X obj 468 330 bng 15 250 50 0 empty empty empty 17 7 0 10 -262144
-1 -1;
#X obj 412 328 bng 15 250 50 0 empty empty empty 17 7 0 10 -262144
-1 -1;
#X obj 343 332 bng 15 250 50 0 empty empty empty 17 7 0 10 -262144
-1 -1;
#X obj 292 332 bng 15 250 50 0 empty empty empty 17 7 0 10 -262144
-1 -1;
#X obj 220 330 bng 15 250 50 0 empty empty empty 17 7 0 10 -262144
-1 -1;
#X obj 309 408 bng 15 250 50 0 empty empty empty 17 7 0 10 -262144
-1 -1;
#X obj 396 415 bng 15 250 50 0 empty empty empty 17 7 0 10 -262144
-1 -1;
#X obj 518 412 bng 15 250 50 0 empty empty empty 17 7 0 10 -262144
-1 -1;
#X obj 863 401 bng 15 250 50 0 empty empty empty 17 7 0 10 -262144
-1 -1;
#X obj 737 410 bng 15 250 50 0 empty empty empty 17 7 0 10 -262144
-1 -1;
#X obj 468 514 tgl 15 0 empty empty empty 17 7 0 10 -262144 -1 -1 0
1;
#X floatatom 468 536 5 0 0 0 - - -, f 5;
#X obj 642 601 wiringPi_gpio 6 0 0;
#X obj 679 471 delay 3000;
#X obj 468 557 wiringPi_gpio 27 0 1;
#X obj 514 465 delay 150;
#X floatatom 684 507 5 0 0 0 - - -, f 5;
#X obj 640 539 tgl 15 0 empty empty empty 17 7 0 10 -262144 -1 -1 0
1;
#X floatatom 640 572 5 0 0 0 - - -, f 5;
#X obj 63 790 tgl 15 0 empty empty empty 17 7 0 10 -262144 -1 -1 0
1;
#X floatatom 62 830 5 0 0 0 - - -, f 5;
#X obj 62 851 wiringPi_gpio 27 0 1;
#X obj 94 745 delay 150;
#X obj 77 698 metro 500;
#X obj 85 647 tgl 15 0 empty empty empty 17 7 0 10 -262144 -1 -1 0
1;
#X obj 128 591 delay 3000;
#X obj 77 558 bng 15 250 50 0 empty empty empty 17 7 0 10 -262144 -1
-1;
#N canvas 241 271 450 398 ptn_1 0;
#X obj 140 264 tgl 15 0 empty empty empty 17 7 0 10 -262144 -1 -1 0
1;
#X floatatom 139 304 5 0 0 0 - - -, f 5;
#X obj 139 325 wiringPi_gpio 27 0 1;
#X obj 171 219 delay 150;
#X obj 154 172 metro 500;
#X obj 162 121 tgl 15 0 empty empty empty 17 7 0 10 -262144 -1 -1 0
1;
#X obj 205 65 delay 3000;
#X obj 154 32 bng 15 250 50 0 empty empty empty 17 7 0 10 -262144 -1
-1;
#X connect 0 0 1 0;
#X connect 1 0 2 0;
#X connect 3 0 0 0;
#X connect 4 0 3 0;
#X connect 4 0 0 0;
#X connect 5 0 4 0;
#X connect 6 0 5 0;
#X connect 7 0 6 0;
#X connect 7 0 5 0;
#X restore 105 86 pd ptn_1;
#X floatatom 263 839 5 0 0 0 - - -, f 5;
#X obj 263 860 wiringPi_gpio 27 0 1;
#X obj 288 764 tgl 15 0 empty empty empty 17 7 0 10 -262144 -1 -1 0
1;
#X obj 245 526 bng 15 250 50 0 empty empty empty 17 7 0 10 -262144
-1 -1;
#X obj 299 795 delay 150;
#X obj 73 384 bng 15 250 50 0 empty empty empty 17 7 0 10 -262144 -1
-1;
#X obj 85 501 tgl 15 0 empty empty empty 17 7 0 10 -262144 -1 -1 0
1;
#X obj 67 433 delay 1000;
#X obj 301 639 delay 1000;
#X obj 393 649 delay 2500;
#X obj 477 672 delay 3000;
#X obj 559 689 delay 4000;
#X text 683 558 GPIO25 LED;
#X connect 0 0 3 0;
#X connect 0 1 3 0;
#X connect 1 0 43 0;
#X connect 2 0 20 0;
#X connect 3 0 17 0;
#X connect 3 1 2 0;
#X connect 17 0 1 0;
#X connect 18 0 55 0;
#X connect 20 0 22 0;
#X connect 21 0 27 1;
#X connect 21 0 35 1;
#X connect 21 0 33 1;
#X connect 21 0 32 1;
#X connect 21 0 31 1;
#X connect 21 0 30 1;
#X connect 21 0 28 1;
#X connect 21 0 26 1;
#X connect 21 0 29 1;
#X connect 21 0 37 1;
#X connect 21 0 36 1;
#X connect 21 0 40 1;
#X connect 21 0 34 1;
#X connect 22 0 21 0;
#X connect 23 0 53 0;
#X connect 24 0 56 0;
#X connect 25 0 52 0;
#X connect 26 0 49 0;
#X connect 27 0 23 0;
#X connect 28 0 48 0;
#X connect 29 0 50 0;
#X connect 30 0 47 0;
#X connect 31 0 44 0;
#X connect 32 0 46 0;
#X connect 33 0 24 0;
#X connect 34 0 18 0;
#X connect 35 0 25 0;
#X connect 36 0 45 0;
#X connect 37 0 51 0;
#X connect 39 0 54 0;
#X connect 40 0 39 0;
#X connect 43 0 36 0;
#X connect 43 1 37 0;
#X connect 43 2 29 0;
#X connect 43 3 26 0;
#X connect 43 4 28 0;
#X connect 43 5 30 0;
#X connect 43 6 31 0;
#X connect 43 7 32 0;
#X connect 43 8 33 0;
#X connect 43 9 34 0;
#X connect 43 10 35 0;
#X connect 43 11 27 0;
#X connect 43 12 40 0;
#X connect 43 13 42 0;
#X connect 44 0 53 0;
#X connect 45 0 52 0;
#X connect 46 0 54 0;
#X connect 47 0 52 0;
#X connect 48 0 55 0;
#X connect 49 0 56 0;
#X connect 50 0 54 0;
#X connect 51 0 53 0;
#X connect 54 0 60 0;
#X connect 54 0 57 0;
#X connect 54 0 62 0;
#X connect 54 0 64 0;
#X connect 57 0 58 0;
#X connect 58 0 61 0;
#X connect 60 0 63 0;
#X connect 62 0 57 0;
#X connect 63 0 64 0;
#X connect 64 0 65 0;
#X connect 65 0 59 0;
#X connect 66 0 67 0;
#X connect 67 0 68 0;
#X connect 69 0 66 0;
#X connect 70 0 69 0;
#X connect 70 0 66 0;
#X connect 71 0 70 0;
#X connect 72 0 71 0;
#X connect 73 0 72 0;
#X connect 73 0 71 0;
#X connect 75 0 76 0;
#X connect 77 0 79 0;
#X connect 77 0 75 0;
#X connect 78 0 83 0;
#X connect 78 0 77 0;
#X connect 78 0 84 0;
#X connect 78 0 85 0;
#X connect 78 0 86 0;
#X connect 79 0 75 0;
#X connect 80 0 82 0;
#X connect 82 0 81 0;
#X connect 83 0 77 0;
#X connect 84 0 77 0;
#X connect 85 0 77 0;
#X connect 86 0 77 0;
