#N canvas 259 113 1505 928 10;
#X obj 561 20 adc~;
#X floatatom 566 120 5 0 0 0 - - -, f 5;
#X floatatom 898 85 5 0 0 0 - - -, f 5;
#X obj 560 56 sigmund~ -hop 4096 pitch env;
#X text 1054 313 b5;
#X text 911 307 a5;
#X text 974 308 as5;
#X text 843 304 gs5;
#X text 783 305 g5;
#X text 725 308 fs5;
#X text 659 311 f5;
#X text 604 304 e5;
#X text 539 313 ds5;
#X text 483 310 d5;
#X text 411 306 cs5;
#X text 356 306 c5;
#X text 615 32 feaquency -> pitch;
#X obj 561 92 int;
#X obj 916 334 bng 15 250 50 0 empty empty empty 17 7 0 10 -262144
-1 -1;
#X obj 898 113 > 50;
#X floatatom 898 176 5 0 0 0 - - -, f 5;
#X obj 898 144 change;
#X obj 1046 337 bng 15 250 50 0 empty empty empty 17 7 0 10 -262144
-1 -1;
#X obj 852 329 bng 15 250 50 0 empty empty empty 17 7 0 10 -262144
-1 -1;
#X obj 985 335 bng 15 250 50 0 empty empty empty 17 7 0 10 -262144
-1 -1;
#X obj 529 264 spigot;
#X obj 1042 263 spigot;
#X obj 593 260 spigot;
#X obj 468 265 spigot;
#X obj 651 261 spigot;
#X obj 714 261 spigot;
#X obj 778 262 spigot;
#X obj 843 262 spigot;
#X obj 917 264 spigot;
#X obj 976 262 spigot;
#X obj 347 264 spigot;
#X obj 404 265 spigot;
#X text 959 146 ELIMINATE REDUNDANCY IN A NUMBER STREAM;
#X obj 1112 335 bng 15 250 50 0 empty empty empty 17 7 0 10 -262144
-1 -1;
#X obj 1108 265 spigot;
#X text 1120 311 c6;
#X floatatom 733 182 5 0 0 0 - - -, f 5;
#X obj 399 180 sel 71 72 73 74 75 76 77 78 79 80 81 82 83;
#X obj 719 334 bng 15 250 50 0 empty empty empty 17 7 0 10 -262144
-1 -1;
#X obj 349 332 bng 15 250 50 0 empty empty empty 17 7 0 10 -262144
-1 -1;
#X obj 782 334 bng 15 250 50 0 empty empty empty 17 7 0 10 -262144
-1 -1;
#X obj 658 330 bng 15 250 50 0 empty empty empty 17 7 0 10 -262144
-1 -1;
#X obj 602 328 bng 15 250 50 0 empty empty empty 17 7 0 10 -262144
-1 -1;
#X obj 533 332 bng 15 250 50 0 empty empty empty 17 7 0 10 -262144
-1 -1;
#X obj 482 332 bng 15 250 50 0 empty empty empty 17 7 0 10 -262144
-1 -1;
#X obj 410 330 bng 15 250 50 0 empty empty empty 17 7 0 10 -262144
-1 -1;
#X obj 499 408 bng 15 250 50 0 empty empty empty 17 7 0 10 -262144
-1 -1;
#X obj 586 415 bng 15 250 50 0 empty empty empty 17 7 0 10 -262144
-1 -1;
#X obj 708 412 bng 15 250 50 0 empty empty empty 17 7 0 10 -262144
-1 -1;
#X obj 1053 401 bng 15 250 50 0 empty empty empty 17 7 0 10 -262144
-1 -1;
#X obj 927 410 bng 15 250 50 0 empty empty empty 17 7 0 10 -262144
-1 -1;
#X obj 1016 601 delay 3000;
#X floatatom 1021 629 5 0 0 0 - - -, f 5;
#X obj 977 661 tgl 15 0 empty empty empty 17 7 0 10 -262144 -1 -1 0
1;
#X floatatom 977 694 5 0 0 0 - - -, f 5;
#X obj 146 597 delay 3000;
#X floatatom 151 633 5 0 0 0 - - -, f 5;
#X obj 107 665 tgl 15 0 empty empty empty 17 7 0 10 -262144 -1 -1 0
1;
#X floatatom 107 698 5 0 0 0 - - -, f 5;
#X obj 332 611 delay 3000;
#X floatatom 339 649 5 0 0 0 - - -, f 5;
#X obj 295 681 tgl 15 0 empty empty empty 17 7 0 10 -262144 -1 -1 0
1;
#X floatatom 295 714 5 0 0 0 - - -, f 5;
#X obj 662 597 delay 3000;
#X floatatom 669 635 5 0 0 0 - - -, f 5;
#X obj 625 667 tgl 15 0 empty empty empty 17 7 0 10 -262144 -1 -1 0
1;
#X floatatom 625 700 5 0 0 0 - - -, f 5;
#X obj 1189 579 delay 3000;
#X floatatom 1196 617 5 0 0 0 - - -, f 5;
#X obj 1152 649 tgl 15 0 empty empty empty 17 7 0 10 -262144 -1 -1
0 1;
#X floatatom 1152 682 5 0 0 0 - - -, f 5;
#X obj 838 600 delay 3000;
#X floatatom 845 638 5 0 0 0 - - -, f 5;
#X obj 801 670 tgl 15 0 empty empty empty 17 7 0 10 -262144 -1 -1 0
1;
#X floatatom 801 703 5 0 0 0 - - -, f 5;
#X text 672 569 GPIO 23 LED;
#X text 848 572 GPIO 23 LED;
#X obj 627 729 wiringPi_gpio 4 0 0;
#X obj 803 732 wiringPi_gpio 4 0 0;
#X text 1199 551 GPIO 4 LED;
#X text 154 567 GPIO 24 LED;
#X obj 109 727 wiringPi_gpio 5 0 0;
#X text 342 583 GPIO 24 LED;
#X obj 297 743 wiringPi_gpio 5 0 0;
#X text 1019 568 GPIO 4 LED;
#X obj 979 723 wiringPi_gpio 2 0 0;
#X obj 1154 711 wiringPi_gpio 2 0 0;
#X connect 0 0 3 0;
#X connect 0 1 3 0;
#X connect 1 0 42 0;
#X connect 2 0 19 0;
#X connect 3 0 17 0;
#X connect 3 1 2 0;
#X connect 17 0 1 0;
#X connect 18 0 54 0;
#X connect 19 0 21 0;
#X connect 20 0 26 1;
#X connect 20 0 34 1;
#X connect 20 0 32 1;
#X connect 20 0 31 1;
#X connect 20 0 30 1;
#X connect 20 0 29 1;
#X connect 20 0 27 1;
#X connect 20 0 25 1;
#X connect 20 0 28 1;
#X connect 20 0 36 1;
#X connect 20 0 35 1;
#X connect 20 0 39 1;
#X connect 20 0 33 1;
#X connect 21 0 20 0;
#X connect 22 0 52 0;
#X connect 23 0 55 0;
#X connect 24 0 51 0;
#X connect 25 0 48 0;
#X connect 26 0 22 0;
#X connect 27 0 47 0;
#X connect 28 0 49 0;
#X connect 29 0 46 0;
#X connect 30 0 43 0;
#X connect 31 0 45 0;
#X connect 32 0 23 0;
#X connect 33 0 18 0;
#X connect 34 0 24 0;
#X connect 35 0 44 0;
#X connect 36 0 50 0;
#X connect 38 0 53 0;
#X connect 39 0 38 0;
#X connect 42 0 35 0;
#X connect 42 1 36 0;
#X connect 42 2 28 0;
#X connect 42 3 25 0;
#X connect 42 4 27 0;
#X connect 42 5 29 0;
#X connect 42 6 30 0;
#X connect 42 7 31 0;
#X connect 42 8 32 0;
#X connect 42 9 33 0;
#X connect 42 10 34 0;
#X connect 42 11 26 0;
#X connect 42 12 39 0;
#X connect 42 13 41 0;
#X connect 43 0 52 0;
#X connect 44 0 51 0;
#X connect 45 0 53 0;
#X connect 46 0 51 0;
#X connect 47 0 54 0;
#X connect 48 0 55 0;
#X connect 49 0 53 0;
#X connect 50 0 52 0;
#X connect 51 0 62 0;
#X connect 51 0 60 0;
#X connect 52 0 64 0;
#X connect 52 0 66 0;
#X connect 53 0 68 0;
#X connect 53 0 76 0;
#X connect 53 0 78 0;
#X connect 53 0 70 0;
#X connect 54 0 72 0;
#X connect 54 0 74 0;
#X connect 55 0 58 0;
#X connect 55 0 56 0;
#X connect 56 0 57 0;
#X connect 57 0 58 0;
#X connect 58 0 59 0;
#X connect 59 0 90 0;
#X connect 60 0 61 0;
#X connect 61 0 62 0;
#X connect 62 0 63 0;
#X connect 63 0 86 0;
#X connect 64 0 65 0;
#X connect 65 0 66 0;
#X connect 66 0 67 0;
#X connect 67 0 88 0;
#X connect 68 0 69 0;
#X connect 69 0 70 0;
#X connect 70 0 71 0;
#X connect 71 0 82 0;
#X connect 72 0 73 0;
#X connect 73 0 74 0;
#X connect 74 0 75 0;
#X connect 75 0 91 0;
#X connect 76 0 77 0;
#X connect 77 0 78 0;
#X connect 78 0 79 0;
#X connect 79 0 83 0;
