#N canvas 93 136 1131 665 10;
#X obj 452 16 adc~;
#X floatatom 467 141 5 0 0 0 - - -, f 5;
#X floatatom 736 59 5 0 0 0 - - -, f 5;
#X obj 451 52 sigmund~ -hop 4096 pitch env;
#X obj 733 239 == 83;
#X text 742 260 c6;
#X obj 689 238 == 82;
#X text 694 257 b5;
#X obj 632 239 == 81;
#X obj 581 240 == 80;
#X text 596 260 a5;
#X text 640 259 as5;
#X obj 530 237 == 79;
#X text 545 257 gs5;
#X obj 498 277 tgl 15 0 empty empty empty 17 7 0 10 -262144 -1 -1 0
1;
#X obj 483 236 == 78;
#X text 498 256 g5;
#X obj 446 277 tgl 15 0 empty empty empty 17 7 0 10 -262144 -1 -1 0
1;
#X obj 431 236 == 77;
#X text 446 256 fs5;
#X obj 400 278 tgl 15 0 empty empty empty 17 7 0 10 -262144 -1 -1 0
1;
#X obj 385 237 == 76;
#X text 400 257 f5;
#X obj 355 277 tgl 15 0 empty empty empty 17 7 0 10 -262144 -1 -1 0
1;
#X obj 340 236 == 75;
#X text 355 256 e5;
#X obj 311 280 tgl 15 0 empty empty empty 17 7 0 10 -262144 -1 -1 0
1;
#X obj 296 239 == 74;
#X text 311 259 ds5;
#X obj 271 280 tgl 15 0 empty empty empty 17 7 0 10 -262144 -1 -1 0
1;
#X obj 256 239 == 73;
#X text 271 259 d5;
#X obj 226 279 tgl 15 0 empty empty empty 17 7 0 10 -262144 -1 -1 0
1;
#X obj 211 238 == 72;
#X text 226 258 cs5;
#X obj 182 278 tgl 15 0 empty empty empty 17 7 0 10 -262144 -1 -1 0
1;
#X obj 167 237 == 71;
#X text 182 257 c5;
#X obj 128 624 shell;
#X msg 43 526 /usr/bin/ruby /home/pi/Documents/gitHub/mikke2017/pd/program/led-test.rb
;
#X msg 318 576 /usr/bin/ruby /home/pi/Documents/gitHub/mikke2017/pd/program/led-stop.rb
;
#X text 506 28 feaquency -> pitch;
#X obj 462 113 int;
#X obj 683 362 bng 15 250 50 0 empty empty empty 17 7 0 10 -262144
-1 -1;
#X obj 494 484 shell;
#X msg 389 396 /usr/bin/python /home/pi/Documents/gitHub/mikke2017/pd/program/led-high.py
;
#X obj 804 92 > 50;
#X floatatom 791 269 5 0 0 0 - - -, f 5;
#X obj 832 155 change;
#X obj 744 369 bng 15 250 50 0 empty empty empty 17 7 0 10 -262144
-1 -1;
#X obj 677 323 spigot;
#X obj 612 285 sel 1;
#X connect 0 0 3 0;
#X connect 0 1 3 0;
#X connect 1 0 4 0;
#X connect 1 0 6 0;
#X connect 1 0 8 0;
#X connect 1 0 9 0;
#X connect 1 0 12 0;
#X connect 1 0 15 0;
#X connect 1 0 18 0;
#X connect 1 0 21 0;
#X connect 1 0 24 0;
#X connect 1 0 27 0;
#X connect 1 0 30 0;
#X connect 1 0 33 0;
#X connect 1 0 36 0;
#X connect 2 0 46 0;
#X connect 3 0 42 0;
#X connect 3 1 2 0;
#X connect 9 0 51 0;
#X connect 15 0 14 0;
#X connect 18 0 17 0;
#X connect 21 0 20 0;
#X connect 24 0 23 0;
#X connect 27 0 26 0;
#X connect 30 0 29 0;
#X connect 33 0 32 0;
#X connect 36 0 35 0;
#X connect 39 0 38 0;
#X connect 40 0 38 0;
#X connect 42 0 1 0;
#X connect 43 0 45 0;
#X connect 45 0 44 0;
#X connect 46 0 48 0;
#X connect 47 0 50 1;
#X connect 48 0 47 0;
#X connect 50 0 43 0;
#X connect 51 0 50 0;
