#N canvas 65 154 840 891 10;
#X obj 193 225 delay;
#X floatatom 195 197 5 0 0 0 - - -, f 5;
#X obj 249 226 delay;
#X floatatom 251 198 5 0 0 0 - - -, f 5;
#X obj 309 226 delay;
#X floatatom 311 198 5 0 0 0 - - -, f 5;
#X obj 368 223 delay;
#X floatatom 370 195 5 0 0 0 - - -, f 5;
#X obj 430 223 delay;
#X floatatom 432 195 5 0 0 0 - - -, f 5;
#X obj 490 223 delay;
#X floatatom 492 195 5 0 0 0 - - -, f 5;
#X obj 549 220 delay;
#X floatatom 551 192 5 0 0 0 - - -, f 5;
#X obj 194 168 * 1;
#X obj 250 169 * 2;
#X obj 316 168 * 3;
#X obj 369 166 * 4;
#X obj 437 168 * 5;
#X obj 494 168 * 6;
#X obj 550 172 * 7;
#X obj 220 345 vradio 20 1 0 12 empty empty empty 0 -8 0 10 -262144
-1 -1 5;
#X floatatom 46 655 5 0 0 0 - - -, f 5;
#X obj 242 345 vradio 20 1 0 12 empty empty empty 0 -8 0 10 -262144
-1 -1 0;
#X floatatom 96 652 5 0 0 0 - - -, f 5;
#X obj 264 345 vradio 20 1 0 12 empty empty empty 0 -8 0 10 -262144
-1 -1 2;
#X obj 286 345 vradio 20 1 0 12 empty empty empty 0 -8 0 10 -262144
-1 -1 3;
#X obj 308 345 vradio 20 1 0 12 empty empty empty 0 -8 0 10 -262144
-1 -1 6;
#X obj 330 345 vradio 20 1 0 12 empty empty empty 0 -8 0 10 -262144
-1 -1 0;
#X obj 352 345 vradio 20 1 0 12 empty empty empty 0 -8 0 10 -262144
-1 -1 7;
#X obj 374 345 vradio 20 1 0 12 empty empty empty 0 -8 0 10 -262144
-1 -1 0;
#X obj 397 345 vradio 20 1 0 12 empty empty empty 0 -8 0 10 -262144
-1 -1 8;
#X obj 419 345 vradio 20 1 0 12 empty empty empty 0 -8 0 10 -262144
-1 -1 4;
#X floatatom 143 647 5 0 0 0 - - -, f 5;
#X floatatom 293 641 5 0 0 0 - - -, f 5;
#X floatatom 339 639 5 0 0 0 - - -, f 5;
#X floatatom 386 641 5 0 0 0 - - -, f 5;
#X floatatom 483 639 5 0 0 0 - - -, f 5;
#X floatatom 245 646 5 0 0 0 - - -, f 5;
#X floatatom 436 639 5 0 0 0 - - -, f 5;
#X floatatom 199 646 5 0 0 0 - - -, f 5;
#X obj 130 226 delay;
#X floatatom 132 198 5 0 0 0 - - -, f 5;
#X obj 131 169 * 0;
#X obj 224 301 bng 20 250 50 0 empty empty empty 17 7 0 10 -262144
-1 -1;
#X obj 245 301 bng 20 250 50 0 empty empty empty 17 7 0 10 -262144
-1 -1;
#X obj 266 301 bng 20 250 50 0 empty empty empty 17 7 0 10 -262144
-1 -1;
#X obj 287 301 bng 20 250 50 0 empty empty empty 17 7 0 10 -262144
-1 -1;
#X obj 308 301 bng 20 250 50 0 empty empty empty 17 7 0 10 -262144
-1 -1;
#X obj 329 301 bng 20 250 50 0 empty empty empty 17 7 0 10 -262144
-1 -1;
#X obj 350 301 bng 20 250 50 0 empty empty empty 17 7 0 10 -262144
-1 -1;
#X obj 371 301 bng 20 250 50 0 empty empty empty 17 7 0 10 -262144
-1 -1;
#X obj 392 301 bng 20 250 50 0 empty empty empty 17 7 0 10 -262144
-1 -1;
#X obj 412 301 bng 20 250 50 0 empty empty empty 17 7 0 10 -262144
-1 -1;
#X obj 380 26 bng 15 250 50 0 empty empty empty 17 7 0 10 -262144 -1
-1;
#X obj 739 749 vsl 15 128 0 1 0 0 empty empty empty 0 -9 0 10 -262144
-1 -1 0 1;
#X msg 738 640 0;
#N canvas 1057 297 441 782 tone1 0;
#X obj 107 629 *~;
#X obj 144 604 vline~;
#X obj 132 727 dac~;
#X obj 132 681 *~;
#X obj 250 346 bng 15 250 50 0 empty empty empty 17 7 0 10 -262144
-1 -1;
#X obj 141 503 pack f f f f;
#X obj 122 423 bng 15 250 50 0 empty empty empty 17 7 0 10 -262144
-1 -1;
#X msg 142 541 1 \$2 \, \$4 \$3 \$2;
#X obj 257 519 pack f f;
#X obj 301 362 bng 15 250 50 0 empty empty empty 17 7 0 10 -262144
-1 -1;
#X msg 288 564 0 \$2;
#X msg 150 420 6;
#X msg 194 419 1800;
#X msg 238 416 0.7;
#X text 151 395 A;
#X text 201 392 D;
#X text 246 389 S;
#X text 331 409 R;
#X obj 208 297 delay 2000;
#X msg 332 444 700;
#X obj 67 218 mtof;
#X floatatom 66 284 5 0 0 0 - - -, f 5;
#X floatatom 236 675 5 0 0 0 - - -, f 5;
#X obj 70 354 osc~;
#X obj 85 26 inlet;
#X obj 318 623 inlet;
#X obj 87 108 != 0;
#X obj 43 136 + 60;
#X floatatom 53 184 5 0 0 0 - - -, f 5;
#X floatatom 79 69 5 0 0 0 - - -, f 5;
#X obj 158 253 bng 15 250 50 0 empty empty empty 17 7 0 10 -262144
-1 -1;
#X obj 129 158 sel 0 1;
#X connect 0 0 3 0;
#X connect 1 0 0 1;
#X connect 3 0 2 0;
#X connect 4 0 9 0;
#X connect 5 0 7 0;
#X connect 6 0 5 0;
#X connect 7 0 1 0;
#X connect 8 0 10 0;
#X connect 9 0 8 0;
#X connect 9 0 19 0;
#X connect 10 0 1 0;
#X connect 11 0 5 1;
#X connect 12 0 5 2;
#X connect 13 0 5 3;
#X connect 18 0 4 0;
#X connect 19 0 8 1;
#X connect 20 0 21 0;
#X connect 21 0 23 0;
#X connect 22 0 3 1;
#X connect 23 0 0 0;
#X connect 24 0 29 0;
#X connect 25 0 22 0;
#X connect 26 0 31 0;
#X connect 27 0 28 0;
#X connect 28 0 20 0;
#X connect 29 0 26 0;
#X connect 29 0 27 0;
#X connect 30 0 6 0;
#X connect 30 0 11 0;
#X connect 30 0 12 0;
#X connect 30 0 13 0;
#X connect 30 0 18 0;
#X connect 31 1 30 0;
#X restore 57 837 pd tone1;
#N canvas 1056 307 441 782 tone1 0;
#X obj 107 629 *~;
#X obj 144 604 vline~;
#X obj 132 727 dac~;
#X obj 132 681 *~;
#X obj 250 346 bng 15 250 50 0 empty empty empty 17 7 0 10 -262144
-1 -1;
#X obj 141 503 pack f f f f;
#X obj 122 423 bng 15 250 50 0 empty empty empty 17 7 0 10 -262144
-1 -1;
#X msg 142 541 1 \$2 \, \$4 \$3 \$2;
#X obj 257 519 pack f f;
#X obj 301 362 bng 15 250 50 0 empty empty empty 17 7 0 10 -262144
-1 -1;
#X msg 288 564 0 \$2;
#X msg 150 420 6;
#X msg 194 419 1800;
#X msg 238 416 0.7;
#X text 151 395 A;
#X text 201 392 D;
#X text 246 389 S;
#X text 331 409 R;
#X obj 208 297 delay 2000;
#X msg 332 444 700;
#X obj 67 218 mtof;
#X floatatom 66 284 5 0 0 0 - - -, f 5;
#X floatatom 236 675 5 0 0 0 - - -, f 5;
#X obj 70 354 osc~;
#X obj 85 26 inlet;
#X obj 318 623 inlet;
#X obj 87 108 != 0;
#X obj 43 136 + 60;
#X floatatom 53 184 5 0 0 0 - - -, f 5;
#X floatatom 79 69 5 0 0 0 - - -, f 5;
#X obj 158 253 bng 15 250 50 0 empty empty empty 17 7 0 10 -262144
-1 -1;
#X obj 129 158 sel 0 1;
#X connect 0 0 3 0;
#X connect 1 0 0 1;
#X connect 3 0 2 0;
#X connect 4 0 9 0;
#X connect 5 0 7 0;
#X connect 6 0 5 0;
#X connect 7 0 1 0;
#X connect 8 0 10 0;
#X connect 9 0 8 0;
#X connect 9 0 19 0;
#X connect 10 0 1 0;
#X connect 11 0 5 1;
#X connect 12 0 5 2;
#X connect 13 0 5 3;
#X connect 18 0 4 0;
#X connect 19 0 8 1;
#X connect 20 0 21 0;
#X connect 21 0 23 0;
#X connect 22 0 3 1;
#X connect 23 0 0 0;
#X connect 24 0 29 0;
#X connect 25 0 22 0;
#X connect 26 0 31 0;
#X connect 27 0 28 0;
#X connect 28 0 20 0;
#X connect 29 0 26 0;
#X connect 29 0 27 0;
#X connect 30 0 6 0;
#X connect 30 0 11 0;
#X connect 30 0 12 0;
#X connect 30 0 13 0;
#X connect 30 0 18 0;
#X connect 31 1 30 0;
#X restore 99 803 pd tone1;
#N canvas 1057 297 441 782 tone1 0;
#X obj 107 629 *~;
#X obj 144 604 vline~;
#X obj 132 727 dac~;
#X obj 132 681 *~;
#X obj 158 253 bng 15 250 50 0 empty empty empty 17 7 0 10 -262144
-1 -1;
#X obj 250 346 bng 15 250 50 0 empty empty empty 17 7 0 10 -262144
-1 -1;
#X obj 141 503 pack f f f f;
#X obj 122 423 bng 15 250 50 0 empty empty empty 17 7 0 10 -262144
-1 -1;
#X msg 142 541 1 \$2 \, \$4 \$3 \$2;
#X obj 257 519 pack f f;
#X obj 301 362 bng 15 250 50 0 empty empty empty 17 7 0 10 -262144
-1 -1;
#X msg 288 564 0 \$2;
#X msg 150 420 6;
#X msg 194 419 1800;
#X msg 238 416 0.7;
#X text 151 395 A;
#X text 201 392 D;
#X text 246 389 S;
#X text 331 409 R;
#X obj 208 297 delay 2000;
#X msg 332 444 700;
#X obj 67 218 mtof;
#X floatatom 66 284 5 0 0 0 - - -, f 5;
#X floatatom 236 675 5 0 0 0 - - -, f 5;
#X obj 70 354 osc~;
#X obj 85 26 inlet;
#X obj 318 623 inlet;
#X obj 87 108 != 0;
#X obj 43 136 + 60;
#X floatatom 53 184 5 0 0 0 - - -, f 5;
#X floatatom 79 69 5 0 0 0 - - -, f 5;
#X obj 129 158 sel 0 1;
#X connect 0 0 3 0;
#X connect 1 0 0 1;
#X connect 3 0 2 0;
#X connect 4 0 7 0;
#X connect 4 0 12 0;
#X connect 4 0 13 0;
#X connect 4 0 14 0;
#X connect 4 0 19 0;
#X connect 5 0 10 0;
#X connect 6 0 8 0;
#X connect 7 0 6 0;
#X connect 8 0 1 0;
#X connect 9 0 11 0;
#X connect 10 0 9 0;
#X connect 10 0 20 0;
#X connect 11 0 1 0;
#X connect 12 0 6 1;
#X connect 13 0 6 2;
#X connect 14 0 6 3;
#X connect 19 0 5 0;
#X connect 20 0 9 1;
#X connect 21 0 22 0;
#X connect 22 0 24 0;
#X connect 23 0 3 1;
#X connect 24 0 0 0;
#X connect 25 0 30 0;
#X connect 26 0 23 0;
#X connect 27 0 31 0;
#X connect 28 0 29 0;
#X connect 29 0 21 0;
#X connect 30 0 27 0;
#X connect 30 0 28 0;
#X connect 31 1 4 0;
#X restore 387 740 pd tone1;
#N canvas 1055 331 441 768 tone1 0;
#X obj 107 629 *~;
#X obj 144 604 vline~;
#X obj 132 727 dac~;
#X obj 132 681 *~;
#X obj 158 253 bng 15 250 50 0 empty empty empty 17 7 0 10 -262144
-1 -1;
#X obj 250 346 bng 15 250 50 0 empty empty empty 17 7 0 10 -262144
-1 -1;
#X obj 141 503 pack f f f f;
#X obj 122 423 bng 15 250 50 0 empty empty empty 17 7 0 10 -262144
-1 -1;
#X msg 142 541 1 \$2 \, \$4 \$3 \$2;
#X obj 257 519 pack f f;
#X obj 301 362 bng 15 250 50 0 empty empty empty 17 7 0 10 -262144
-1 -1;
#X msg 288 564 0 \$2;
#X msg 150 420 6;
#X msg 194 419 1800;
#X msg 238 416 0.7;
#X text 151 395 A;
#X text 201 392 D;
#X text 246 389 S;
#X text 331 409 R;
#X obj 208 297 delay 2000;
#X msg 332 444 700;
#X obj 67 218 mtof;
#X floatatom 66 284 5 0 0 0 - - -, f 5;
#X floatatom 236 675 5 0 0 0 - - -, f 5;
#X obj 70 354 osc~;
#X obj 85 26 inlet;
#X obj 318 623 inlet;
#X obj 87 108 != 0;
#X obj 43 136 + 60;
#X floatatom 53 184 5 0 0 0 - - -, f 5;
#X floatatom 79 69 5 0 0 0 - - -, f 5;
#X obj 129 158 sel 0 1;
#X connect 0 0 3 0;
#X connect 1 0 0 1;
#X connect 3 0 2 0;
#X connect 4 0 7 0;
#X connect 4 0 12 0;
#X connect 4 0 13 0;
#X connect 4 0 14 0;
#X connect 4 0 19 0;
#X connect 5 0 10 0;
#X connect 6 0 8 0;
#X connect 7 0 6 0;
#X connect 8 0 1 0;
#X connect 9 0 11 0;
#X connect 10 0 9 0;
#X connect 10 0 20 0;
#X connect 11 0 1 0;
#X connect 12 0 6 1;
#X connect 13 0 6 2;
#X connect 14 0 6 3;
#X connect 19 0 5 0;
#X connect 20 0 9 1;
#X connect 21 0 22 0;
#X connect 22 0 24 0;
#X connect 23 0 3 1;
#X connect 24 0 0 0;
#X connect 25 0 30 0;
#X connect 26 0 23 0;
#X connect 27 0 31 0;
#X connect 28 0 29 0;
#X connect 29 0 21 0;
#X connect 30 0 27 0;
#X connect 30 0 28 0;
#X connect 31 1 4 0;
#X restore 140 773 pd tone1;
#N canvas 1055 317 441 782 tone1 0;
#X obj 107 629 *~;
#X obj 144 604 vline~;
#X obj 132 727 dac~;
#X obj 132 681 *~;
#X obj 158 253 bng 15 250 50 0 empty empty empty 17 7 0 10 -262144
-1 -1;
#X obj 250 346 bng 15 250 50 0 empty empty empty 17 7 0 10 -262144
-1 -1;
#X obj 141 503 pack f f f f;
#X obj 122 423 bng 15 250 50 0 empty empty empty 17 7 0 10 -262144
-1 -1;
#X msg 142 541 1 \$2 \, \$4 \$3 \$2;
#X obj 257 519 pack f f;
#X obj 301 362 bng 15 250 50 0 empty empty empty 17 7 0 10 -262144
-1 -1;
#X msg 288 564 0 \$2;
#X msg 150 420 6;
#X msg 194 419 1800;
#X msg 238 416 0.7;
#X text 151 395 A;
#X text 201 392 D;
#X text 246 389 S;
#X text 331 409 R;
#X obj 208 297 delay 2000;
#X msg 332 444 700;
#X obj 67 218 mtof;
#X floatatom 66 284 5 0 0 0 - - -, f 5;
#X floatatom 236 675 5 0 0 0 - - -, f 5;
#X obj 70 354 osc~;
#X obj 85 26 inlet;
#X obj 318 623 inlet;
#X obj 87 108 != 0;
#X obj 43 136 + 60;
#X floatatom 53 184 5 0 0 0 - - -, f 5;
#X floatatom 79 69 5 0 0 0 - - -, f 5;
#X obj 129 158 sel 0 1;
#X connect 0 0 3 0;
#X connect 1 0 0 1;
#X connect 3 0 2 0;
#X connect 4 0 7 0;
#X connect 4 0 12 0;
#X connect 4 0 13 0;
#X connect 4 0 14 0;
#X connect 4 0 19 0;
#X connect 5 0 10 0;
#X connect 6 0 8 0;
#X connect 7 0 6 0;
#X connect 8 0 1 0;
#X connect 9 0 11 0;
#X connect 10 0 9 0;
#X connect 10 0 20 0;
#X connect 11 0 1 0;
#X connect 12 0 6 1;
#X connect 13 0 6 2;
#X connect 14 0 6 3;
#X connect 19 0 5 0;
#X connect 20 0 9 1;
#X connect 21 0 22 0;
#X connect 22 0 24 0;
#X connect 23 0 3 1;
#X connect 24 0 0 0;
#X connect 25 0 30 0;
#X connect 26 0 23 0;
#X connect 27 0 31 0;
#X connect 28 0 29 0;
#X connect 29 0 21 0;
#X connect 30 0 27 0;
#X connect 30 0 28 0;
#X connect 31 1 4 0;
#X restore 191 739 pd tone1;
#N canvas 1055 317 441 782 tone1 0;
#X obj 107 629 *~;
#X obj 144 604 vline~;
#X obj 132 727 dac~;
#X obj 132 681 *~;
#X obj 158 253 bng 15 250 50 0 empty empty empty 17 7 0 10 -262144
-1 -1;
#X obj 250 346 bng 15 250 50 0 empty empty empty 17 7 0 10 -262144
-1 -1;
#X obj 141 503 pack f f f f;
#X obj 122 423 bng 15 250 50 0 empty empty empty 17 7 0 10 -262144
-1 -1;
#X msg 142 541 1 \$2 \, \$4 \$3 \$2;
#X obj 257 519 pack f f;
#X obj 301 362 bng 15 250 50 0 empty empty empty 17 7 0 10 -262144
-1 -1;
#X msg 288 564 0 \$2;
#X msg 150 420 6;
#X msg 194 419 1800;
#X msg 238 416 0.7;
#X text 151 395 A;
#X text 201 392 D;
#X text 246 389 S;
#X text 331 409 R;
#X obj 208 297 delay 2000;
#X msg 332 444 700;
#X obj 67 218 mtof;
#X floatatom 66 284 5 0 0 0 - - -, f 5;
#X floatatom 236 675 5 0 0 0 - - -, f 5;
#X obj 70 354 osc~;
#X obj 85 26 inlet;
#X obj 318 623 inlet;
#X obj 87 108 != 0;
#X obj 43 136 + 60;
#X floatatom 53 184 5 0 0 0 - - -, f 5;
#X floatatom 79 69 5 0 0 0 - - -, f 5;
#X obj 129 158 sel 0 1;
#X connect 0 0 3 0;
#X connect 1 0 0 1;
#X connect 3 0 2 0;
#X connect 4 0 7 0;
#X connect 4 0 12 0;
#X connect 4 0 13 0;
#X connect 4 0 14 0;
#X connect 4 0 19 0;
#X connect 5 0 10 0;
#X connect 6 0 8 0;
#X connect 7 0 6 0;
#X connect 8 0 1 0;
#X connect 9 0 11 0;
#X connect 10 0 9 0;
#X connect 10 0 20 0;
#X connect 11 0 1 0;
#X connect 12 0 6 1;
#X connect 13 0 6 2;
#X connect 14 0 6 3;
#X connect 19 0 5 0;
#X connect 20 0 9 1;
#X connect 21 0 22 0;
#X connect 22 0 24 0;
#X connect 23 0 3 1;
#X connect 24 0 0 0;
#X connect 25 0 30 0;
#X connect 26 0 23 0;
#X connect 27 0 31 0;
#X connect 28 0 29 0;
#X connect 29 0 21 0;
#X connect 30 0 27 0;
#X connect 30 0 28 0;
#X connect 31 1 4 0;
#X restore 238 704 pd tone1;
#N canvas 1054 327 441 782 tone1 0;
#X obj 107 629 *~;
#X obj 144 604 vline~;
#X obj 132 727 dac~;
#X obj 132 681 *~;
#X obj 158 253 bng 15 250 50 0 empty empty empty 17 7 0 10 -262144
-1 -1;
#X obj 250 346 bng 15 250 50 0 empty empty empty 17 7 0 10 -262144
-1 -1;
#X obj 141 503 pack f f f f;
#X obj 122 423 bng 15 250 50 0 empty empty empty 17 7 0 10 -262144
-1 -1;
#X msg 142 541 1 \$2 \, \$4 \$3 \$2;
#X obj 257 519 pack f f;
#X obj 301 362 bng 15 250 50 0 empty empty empty 17 7 0 10 -262144
-1 -1;
#X msg 288 564 0 \$2;
#X msg 150 420 6;
#X msg 194 419 1800;
#X msg 238 416 0.7;
#X text 151 395 A;
#X text 201 392 D;
#X text 246 389 S;
#X text 331 409 R;
#X obj 208 297 delay 2000;
#X msg 332 444 700;
#X obj 67 218 mtof;
#X floatatom 66 284 5 0 0 0 - - -, f 5;
#X floatatom 236 675 5 0 0 0 - - -, f 5;
#X obj 70 354 osc~;
#X obj 85 26 inlet;
#X obj 318 623 inlet;
#X obj 87 108 != 0;
#X obj 43 136 + 60;
#X floatatom 53 184 5 0 0 0 - - -, f 5;
#X floatatom 79 69 5 0 0 0 - - -, f 5;
#X obj 129 158 sel 0 1;
#X connect 0 0 3 0;
#X connect 1 0 0 1;
#X connect 3 0 2 0;
#X connect 4 0 7 0;
#X connect 4 0 12 0;
#X connect 4 0 13 0;
#X connect 4 0 14 0;
#X connect 4 0 19 0;
#X connect 5 0 10 0;
#X connect 6 0 8 0;
#X connect 7 0 6 0;
#X connect 8 0 1 0;
#X connect 9 0 11 0;
#X connect 10 0 9 0;
#X connect 10 0 20 0;
#X connect 11 0 1 0;
#X connect 12 0 6 1;
#X connect 13 0 6 2;
#X connect 14 0 6 3;
#X connect 19 0 5 0;
#X connect 20 0 9 1;
#X connect 21 0 22 0;
#X connect 22 0 24 0;
#X connect 23 0 3 1;
#X connect 24 0 0 0;
#X connect 25 0 30 0;
#X connect 26 0 23 0;
#X connect 27 0 31 0;
#X connect 28 0 29 0;
#X connect 29 0 21 0;
#X connect 30 0 27 0;
#X connect 30 0 28 0;
#X connect 31 1 4 0;
#X restore 490 683 pd tone1;
#N canvas 1056 307 441 782 tone1 0;
#X obj 107 629 *~;
#X obj 144 604 vline~;
#X obj 132 727 dac~;
#X obj 132 681 *~;
#X obj 158 253 bng 15 250 50 0 empty empty empty 17 7 0 10 -262144
-1 -1;
#X obj 250 346 bng 15 250 50 0 empty empty empty 17 7 0 10 -262144
-1 -1;
#X obj 141 503 pack f f f f;
#X obj 122 423 bng 15 250 50 0 empty empty empty 17 7 0 10 -262144
-1 -1;
#X msg 142 541 1 \$2 \, \$4 \$3 \$2;
#X obj 257 519 pack f f;
#X obj 301 362 bng 15 250 50 0 empty empty empty 17 7 0 10 -262144
-1 -1;
#X msg 288 564 0 \$2;
#X msg 150 420 6;
#X msg 194 419 1800;
#X msg 238 416 0.7;
#X text 151 395 A;
#X text 201 392 D;
#X text 246 389 S;
#X text 331 409 R;
#X obj 208 297 delay 2000;
#X msg 332 444 700;
#X obj 67 218 mtof;
#X floatatom 66 284 5 0 0 0 - - -, f 5;
#X floatatom 236 675 5 0 0 0 - - -, f 5;
#X obj 70 354 osc~;
#X obj 85 26 inlet;
#X obj 318 623 inlet;
#X obj 87 108 != 0;
#X obj 43 136 + 60;
#X floatatom 53 184 5 0 0 0 - - -, f 5;
#X floatatom 79 69 5 0 0 0 - - -, f 5;
#X obj 129 158 sel 0 1;
#X connect 0 0 3 0;
#X connect 1 0 0 1;
#X connect 3 0 2 0;
#X connect 4 0 7 0;
#X connect 4 0 12 0;
#X connect 4 0 13 0;
#X connect 4 0 14 0;
#X connect 4 0 19 0;
#X connect 5 0 10 0;
#X connect 6 0 8 0;
#X connect 7 0 6 0;
#X connect 8 0 1 0;
#X connect 9 0 11 0;
#X connect 10 0 9 0;
#X connect 10 0 20 0;
#X connect 11 0 1 0;
#X connect 12 0 6 1;
#X connect 13 0 6 2;
#X connect 14 0 6 3;
#X connect 19 0 5 0;
#X connect 20 0 9 1;
#X connect 21 0 22 0;
#X connect 22 0 24 0;
#X connect 23 0 3 1;
#X connect 24 0 0 0;
#X connect 25 0 30 0;
#X connect 26 0 23 0;
#X connect 27 0 31 0;
#X connect 28 0 29 0;
#X connect 29 0 21 0;
#X connect 30 0 27 0;
#X connect 30 0 28 0;
#X connect 31 1 4 0;
#X restore 276 795 pd tone1;
#N canvas 1056 307 441 782 tone1 0;
#X obj 107 629 *~;
#X obj 144 604 vline~;
#X obj 132 727 dac~;
#X obj 132 681 *~;
#X obj 158 253 bng 15 250 50 0 empty empty empty 17 7 0 10 -262144
-1 -1;
#X obj 250 346 bng 15 250 50 0 empty empty empty 17 7 0 10 -262144
-1 -1;
#X obj 141 503 pack f f f f;
#X obj 122 423 bng 15 250 50 0 empty empty empty 17 7 0 10 -262144
-1 -1;
#X msg 142 541 1 \$2 \, \$4 \$3 \$2;
#X obj 257 519 pack f f;
#X obj 301 362 bng 15 250 50 0 empty empty empty 17 7 0 10 -262144
-1 -1;
#X msg 288 564 0 \$2;
#X msg 150 420 6;
#X msg 194 419 1800;
#X msg 238 416 0.7;
#X text 151 395 A;
#X text 201 392 D;
#X text 246 389 S;
#X text 331 409 R;
#X obj 208 297 delay 2000;
#X msg 332 444 700;
#X obj 67 218 mtof;
#X floatatom 66 284 5 0 0 0 - - -, f 5;
#X floatatom 236 675 5 0 0 0 - - -, f 5;
#X obj 70 354 osc~;
#X obj 85 26 inlet;
#X obj 318 623 inlet;
#X obj 87 108 != 0;
#X obj 43 136 + 60;
#X floatatom 53 184 5 0 0 0 - - -, f 5;
#X floatatom 79 69 5 0 0 0 - - -, f 5;
#X obj 129 158 sel 0 1;
#X connect 0 0 3 0;
#X connect 1 0 0 1;
#X connect 3 0 2 0;
#X connect 4 0 7 0;
#X connect 4 0 12 0;
#X connect 4 0 13 0;
#X connect 4 0 14 0;
#X connect 4 0 19 0;
#X connect 5 0 10 0;
#X connect 6 0 8 0;
#X connect 7 0 6 0;
#X connect 8 0 1 0;
#X connect 9 0 11 0;
#X connect 10 0 9 0;
#X connect 10 0 20 0;
#X connect 11 0 1 0;
#X connect 12 0 6 1;
#X connect 13 0 6 2;
#X connect 14 0 6 3;
#X connect 19 0 5 0;
#X connect 20 0 9 1;
#X connect 21 0 22 0;
#X connect 22 0 24 0;
#X connect 23 0 3 1;
#X connect 24 0 0 0;
#X connect 25 0 30 0;
#X connect 26 0 23 0;
#X connect 27 0 31 0;
#X connect 28 0 29 0;
#X connect 29 0 21 0;
#X connect 30 0 27 0;
#X connect 30 0 28 0;
#X connect 31 1 4 0;
#X restore 322 766 pd tone1;
#N canvas 1053 337 441 782 tone1 0;
#X obj 107 629 *~;
#X obj 144 604 vline~;
#X obj 132 727 dac~;
#X obj 132 681 *~;
#X obj 158 253 bng 15 250 50 0 empty empty empty 17 7 0 10 -262144
-1 -1;
#X obj 250 346 bng 15 250 50 0 empty empty empty 17 7 0 10 -262144
-1 -1;
#X obj 141 503 pack f f f f;
#X obj 122 423 bng 15 250 50 0 empty empty empty 17 7 0 10 -262144
-1 -1;
#X msg 142 541 1 \$2 \, \$4 \$3 \$2;
#X obj 257 519 pack f f;
#X obj 301 362 bng 15 250 50 0 empty empty empty 17 7 0 10 -262144
-1 -1;
#X msg 288 564 0 \$2;
#X msg 150 420 6;
#X msg 194 419 1800;
#X msg 238 416 0.7;
#X text 151 395 A;
#X text 201 392 D;
#X text 246 389 S;
#X text 331 409 R;
#X obj 208 297 delay 2000;
#X msg 332 444 700;
#X obj 67 218 mtof;
#X floatatom 66 284 5 0 0 0 - - -, f 5;
#X floatatom 236 675 5 0 0 0 - - -, f 5;
#X obj 70 354 osc~;
#X obj 85 26 inlet;
#X obj 318 623 inlet;
#X obj 87 108 != 0;
#X obj 43 136 + 60;
#X floatatom 53 184 5 0 0 0 - - -, f 5;
#X floatatom 79 69 5 0 0 0 - - -, f 5;
#X obj 129 158 sel 0 1;
#X connect 0 0 3 0;
#X connect 1 0 0 1;
#X connect 3 0 2 0;
#X connect 4 0 7 0;
#X connect 4 0 12 0;
#X connect 4 0 13 0;
#X connect 4 0 14 0;
#X connect 4 0 19 0;
#X connect 5 0 10 0;
#X connect 6 0 8 0;
#X connect 7 0 6 0;
#X connect 8 0 1 0;
#X connect 9 0 11 0;
#X connect 10 0 9 0;
#X connect 10 0 20 0;
#X connect 11 0 1 0;
#X connect 12 0 6 1;
#X connect 13 0 6 2;
#X connect 14 0 6 3;
#X connect 19 0 5 0;
#X connect 20 0 9 1;
#X connect 21 0 22 0;
#X connect 22 0 24 0;
#X connect 23 0 3 1;
#X connect 24 0 0 0;
#X connect 25 0 30 0;
#X connect 26 0 23 0;
#X connect 27 0 31 0;
#X connect 28 0 29 0;
#X connect 29 0 21 0;
#X connect 30 0 27 0;
#X connect 30 0 28 0;
#X connect 31 1 4 0;
#X restore 448 714 pd tone1;
#X msg 378 61 200;
#X obj 605 222 delay;
#X floatatom 607 194 5 0 0 0 - - -, f 5;
#X obj 666 217 delay;
#X floatatom 668 189 5 0 0 0 - - -, f 5;
#X obj 606 174 * 8;
#X obj 667 169 * 9;
#X connect 0 0 45 0;
#X connect 1 0 0 0;
#X connect 2 0 46 0;
#X connect 3 0 2 0;
#X connect 4 0 47 0;
#X connect 5 0 4 0;
#X connect 6 0 48 0;
#X connect 7 0 6 0;
#X connect 8 0 49 0;
#X connect 9 0 8 0;
#X connect 10 0 50 0;
#X connect 11 0 10 0;
#X connect 12 0 51 0;
#X connect 13 0 12 0;
#X connect 14 0 1 0;
#X connect 15 0 3 0;
#X connect 16 0 5 0;
#X connect 17 0 7 0;
#X connect 18 0 9 0;
#X connect 19 0 11 0;
#X connect 20 0 13 0;
#X connect 21 0 22 0;
#X connect 22 0 57 0;
#X connect 23 0 24 0;
#X connect 24 0 58 0;
#X connect 25 0 33 0;
#X connect 26 0 40 0;
#X connect 27 0 38 0;
#X connect 28 0 34 0;
#X connect 29 0 35 0;
#X connect 30 0 36 0;
#X connect 31 0 39 0;
#X connect 32 0 37 0;
#X connect 33 0 60 0;
#X connect 34 0 64 0;
#X connect 35 0 65 0;
#X connect 36 0 59 0;
#X connect 37 0 63 0;
#X connect 38 0 62 0;
#X connect 39 0 66 0;
#X connect 40 0 61 0;
#X connect 41 0 44 0;
#X connect 42 0 41 0;
#X connect 43 0 42 0;
#X connect 44 0 21 0;
#X connect 45 0 23 0;
#X connect 46 0 25 0;
#X connect 47 0 26 0;
#X connect 48 0 27 0;
#X connect 49 0 28 0;
#X connect 50 0 29 0;
#X connect 51 0 30 0;
#X connect 52 0 31 0;
#X connect 53 0 32 0;
#X connect 54 0 67 0;
#X connect 55 0 58 1;
#X connect 55 0 60 1;
#X connect 55 0 61 1;
#X connect 55 0 62 1;
#X connect 55 0 65 1;
#X connect 55 0 64 1;
#X connect 55 0 59 1;
#X connect 55 0 66 1;
#X connect 55 0 63 1;
#X connect 55 0 57 1;
#X connect 56 0 55 0;
#X connect 67 0 14 0;
#X connect 67 0 15 0;
#X connect 67 0 16 0;
#X connect 67 0 17 0;
#X connect 67 0 18 0;
#X connect 67 0 19 0;
#X connect 67 0 20 0;
#X connect 67 0 43 0;
#X connect 67 0 72 0;
#X connect 67 0 73 0;
#X connect 69 0 68 0;
#X connect 71 0 70 0;
#X connect 72 0 69 0;
#X connect 73 0 71 0;
