#N canvas 112 135 1123 803 10;
#X obj 718 483 *~;
#X obj 755 458 vline~;
#X obj 620 391 osc~ 440;
#X obj 743 581 dac~;
#X obj 743 535 *~;
#X obj 679 27 bng 15 250 50 0 empty empty empty 17 7 0 10 -262144 -1
-1;
#X obj 771 120 bng 15 250 50 0 empty empty empty 17 7 0 10 -262144
-1 -1;
#X obj 752 357 pack f f f f;
#X obj 733 277 bng 15 250 50 0 empty empty empty 17 7 0 10 -262144
-1 -1;
#X msg 753 395 1 \$2 \, \$4 \$3 \$2;
#X obj 868 373 pack f f;
#X obj 912 216 bng 15 250 50 0 empty empty empty 17 7 0 10 -262144
-1 -1;
#X msg 899 418 0 \$2;
#X obj 579 309 hsl 128 15 200 2000 1 0 empty empty empty -2 -8 0 10
-262144 -1 -1 7700 1;
#X floatatom 613 343 5 0 0 0 - - -, f 5;
#X msg 761 274 6;
#X msg 805 273 1800;
#X msg 849 270 0.7;
#X text 762 249 A;
#X text 812 246 D;
#X text 857 243 S;
#X text 942 263 R;
#X obj 780 501 nbx 5 14 0 1 0 0 empty empty empty 0 -8 0 10 -262144
-1 -1 0.81 256;
#X obj 729 71 delay 2000;
#X msg 943 298 700;
#X connect 0 0 4 0;
#X connect 1 0 0 1;
#X connect 2 0 0 0;
#X connect 4 0 3 0;
#X connect 5 0 8 0;
#X connect 5 0 15 0;
#X connect 5 0 16 0;
#X connect 5 0 17 0;
#X connect 5 0 23 0;
#X connect 6 0 11 0;
#X connect 7 0 9 0;
#X connect 8 0 7 0;
#X connect 9 0 1 0;
#X connect 10 0 12 0;
#X connect 11 0 10 0;
#X connect 11 0 24 0;
#X connect 12 0 1 0;
#X connect 13 0 14 0;
#X connect 14 0 2 0;
#X connect 15 0 7 1;
#X connect 16 0 7 2;
#X connect 17 0 7 3;
#X connect 22 0 4 1;
#X connect 23 0 6 0;
#X connect 24 0 10 1;
