#N canvas 124 67 1489 891 10;
#X obj 1307 756 vsl 15 128 0 1 0 0 empty empty empty 0 -9 0 10 -262144
-1 -1 2900 1;
#X obj 781 380 bng 20 250 50 0 empty empty empty 17 7 0 10 -262144
-1 -1;
#X obj 802 380 bng 20 250 50 0 empty empty empty 17 7 0 10 -262144
-1 -1;
#X obj 823 380 bng 20 250 50 0 empty empty empty 17 7 0 10 -262144
-1 -1;
#X obj 844 380 bng 20 250 50 0 empty empty empty 17 7 0 10 -262144
-1 -1;
#X obj 865 380 bng 20 250 50 0 empty empty empty 17 7 0 10 -262144
-1 -1;
#X obj 886 380 bng 20 250 50 0 empty empty empty 17 7 0 10 -262144
-1 -1;
#X obj 907 380 bng 20 250 50 0 empty empty empty 17 7 0 10 -262144
-1 -1;
#X obj 928 380 bng 20 250 50 0 empty empty empty 17 7 0 10 -262144
-1 -1;
#X obj 673 242 delay;
#X floatatom 675 214 5 0 0 0 - - -, f 5;
#X obj 729 243 delay;
#X floatatom 731 215 5 0 0 0 - - -, f 5;
#X obj 789 243 delay;
#X floatatom 791 215 5 0 0 0 - - -, f 5;
#X obj 848 240 delay;
#X floatatom 850 212 5 0 0 0 - - -, f 5;
#X obj 910 240 delay;
#X floatatom 912 212 5 0 0 0 - - -, f 5;
#X obj 970 240 delay;
#X floatatom 972 212 5 0 0 0 - - -, f 5;
#X obj 1029 237 delay;
#X floatatom 1031 209 5 0 0 0 - - -, f 5;
#X obj 674 185 * 1;
#X obj 730 186 * 2;
#X obj 790 186 * 3;
#X obj 849 183 * 4;
#X obj 917 185 * 5;
#X obj 974 185 * 6;
#X obj 1030 189 * 7;
#X msg 855 123 400;
#X msg 626 357 60;
#X msg 1305 689 0;
#N canvas 577 211 1065 782 tone 0;
#X obj 337 609 *~;
#X obj 374 584 vline~;
#X obj 362 707 dac~;
#X obj 362 661 *~;
#X obj 388 233 bng 15 250 50 0 empty empty empty 17 7 0 10 -262144
-1 -1;
#X obj 480 326 bng 15 250 50 0 empty empty empty 17 7 0 10 -262144
-1 -1;
#X obj 371 483 pack f f f f;
#X obj 352 403 bng 15 250 50 0 empty empty empty 17 7 0 10 -262144
-1 -1;
#X msg 372 521 1 \$2 \, \$4 \$3 \$2;
#X obj 487 499 pack f f;
#X obj 531 342 bng 15 250 50 0 empty empty empty 17 7 0 10 -262144
-1 -1;
#X msg 518 544 0 \$2;
#X msg 380 400 6;
#X msg 424 399 1800;
#X msg 468 396 0.7;
#X text 381 375 A;
#X text 431 372 D;
#X text 476 369 S;
#X text 561 389 R;
#X obj 438 277 delay 2000;
#X msg 562 424 700;
#X obj 292 201 mtof;
#X floatatom 296 264 5 0 0 0 - - -, f 5;
#X floatatom 466 655 5 0 0 0 - - -, f 5;
#X obj 300 334 osc~;
#X floatatom 281 158 5 0 0 0 - - -, f 5;
#X obj 257 78 inlet;
#X obj 432 59 inlet;
#X obj 548 603 inlet;
#X connect 0 0 3 0;
#X connect 1 0 0 1;
#X connect 3 0 2 0;
#X connect 4 0 7 0;
#X connect 4 0 12 0;
#X connect 4 0 13 0;
#X connect 4 0 14 0;
#X connect 4 0 19 0;
#X connect 5 0 10 0;
#X connect 6 0 8 0;
#X connect 7 0 6 0;
#X connect 8 0 1 0;
#X connect 9 0 11 0;
#X connect 10 0 9 0;
#X connect 10 0 20 0;
#X connect 11 0 1 0;
#X connect 12 0 6 1;
#X connect 13 0 6 2;
#X connect 14 0 6 3;
#X connect 19 0 5 0;
#X connect 20 0 9 1;
#X connect 21 0 22 0;
#X connect 22 0 24 0;
#X connect 23 0 3 1;
#X connect 24 0 0 0;
#X connect 25 0 21 0;
#X connect 26 0 25 0;
#X connect 27 0 4 0;
#X connect 28 0 23 0;
#X restore 746 775 pd tone;
#N canvas 604 177 1065 782 tone 1;
#X obj 337 609 *~;
#X obj 374 584 vline~;
#X obj 362 707 dac~;
#X obj 362 661 *~;
#X obj 388 233 bng 15 250 50 0 empty empty empty 17 7 0 10 -262144
-1 -1;
#X obj 480 326 bng 15 250 50 0 empty empty empty 17 7 0 10 -262144
-1 -1;
#X obj 371 483 pack f f f f;
#X obj 352 403 bng 15 250 50 0 empty empty empty 17 7 0 10 -262144
-1 -1;
#X msg 372 521 1 \$2 \, \$4 \$3 \$2;
#X obj 487 499 pack f f;
#X obj 531 342 bng 15 250 50 0 empty empty empty 17 7 0 10 -262144
-1 -1;
#X msg 518 544 0 \$2;
#X msg 380 400 6;
#X msg 424 399 1800;
#X msg 468 396 0.7;
#X text 381 375 A;
#X text 431 372 D;
#X text 476 369 S;
#X text 561 389 R;
#X obj 438 277 delay 2000;
#X msg 562 424 700;
#X obj 292 201 mtof;
#X floatatom 296 264 5 0 0 0 - - -, f 5;
#X floatatom 466 655 5 0 0 0 - - -, f 5;
#X obj 300 334 osc~;
#X floatatom 291 81 5 0 0 0 - - -, f 5;
#X obj 315 17 inlet;
#X obj 548 603 inlet;
#X obj 355 137 != 0;
#X connect 0 0 3 0;
#X connect 1 0 0 1;
#X connect 3 0 2 0;
#X connect 4 0 7 0;
#X connect 4 0 12 0;
#X connect 4 0 13 0;
#X connect 4 0 14 0;
#X connect 4 0 19 0;
#X connect 5 0 10 0;
#X connect 6 0 8 0;
#X connect 7 0 6 0;
#X connect 8 0 1 0;
#X connect 9 0 11 0;
#X connect 10 0 9 0;
#X connect 10 0 20 0;
#X connect 11 0 1 0;
#X connect 12 0 6 1;
#X connect 13 0 6 2;
#X connect 14 0 6 3;
#X connect 19 0 5 0;
#X connect 20 0 9 1;
#X connect 21 0 22 0;
#X connect 22 0 24 0;
#X connect 23 0 3 1;
#X connect 24 0 0 0;
#X connect 25 0 21 0;
#X connect 25 0 28 0;
#X connect 26 0 25 0;
#X connect 27 0 23 0;
#X connect 28 0 4 0;
#X restore 623 859 pd tone;
#N canvas 577 211 1065 782 tone 0;
#X obj 337 609 *~;
#X obj 374 584 vline~;
#X obj 362 707 dac~;
#X obj 362 661 *~;
#X obj 388 233 bng 15 250 50 0 empty empty empty 17 7 0 10 -262144
-1 -1;
#X obj 480 326 bng 15 250 50 0 empty empty empty 17 7 0 10 -262144
-1 -1;
#X obj 371 483 pack f f f f;
#X obj 352 403 bng 15 250 50 0 empty empty empty 17 7 0 10 -262144
-1 -1;
#X msg 372 521 1 \$2 \, \$4 \$3 \$2;
#X obj 487 499 pack f f;
#X obj 531 342 bng 15 250 50 0 empty empty empty 17 7 0 10 -262144
-1 -1;
#X msg 518 544 0 \$2;
#X msg 380 400 6;
#X msg 424 399 1800;
#X msg 468 396 0.7;
#X text 381 375 A;
#X text 431 372 D;
#X text 476 369 S;
#X text 561 389 R;
#X obj 438 277 delay 2000;
#X msg 562 424 700;
#X obj 292 201 mtof;
#X floatatom 296 264 5 0 0 0 - - -, f 5;
#X floatatom 466 655 5 0 0 0 - - -, f 5;
#X obj 300 334 osc~;
#X floatatom 281 158 5 0 0 0 - - -, f 5;
#X obj 257 78 inlet;
#X obj 432 59 inlet;
#X obj 548 603 inlet;
#X connect 0 0 3 0;
#X connect 1 0 0 1;
#X connect 3 0 2 0;
#X connect 4 0 7 0;
#X connect 4 0 12 0;
#X connect 4 0 13 0;
#X connect 4 0 14 0;
#X connect 4 0 19 0;
#X connect 5 0 10 0;
#X connect 6 0 8 0;
#X connect 7 0 6 0;
#X connect 8 0 1 0;
#X connect 9 0 11 0;
#X connect 10 0 9 0;
#X connect 10 0 20 0;
#X connect 11 0 1 0;
#X connect 12 0 6 1;
#X connect 13 0 6 2;
#X connect 14 0 6 3;
#X connect 19 0 5 0;
#X connect 20 0 9 1;
#X connect 21 0 22 0;
#X connect 22 0 24 0;
#X connect 23 0 3 1;
#X connect 24 0 0 0;
#X connect 25 0 21 0;
#X connect 26 0 25 0;
#X connect 27 0 4 0;
#X connect 28 0 23 0;
#X restore 685 812 pd tone;
#X obj 34 552 + 0;
#N canvas 577 211 1065 782 tone 0;
#X obj 337 609 *~;
#X obj 374 584 vline~;
#X obj 362 707 dac~;
#X obj 362 661 *~;
#X obj 388 233 bng 15 250 50 0 empty empty empty 17 7 0 10 -262144
-1 -1;
#X obj 480 326 bng 15 250 50 0 empty empty empty 17 7 0 10 -262144
-1 -1;
#X obj 371 483 pack f f f f;
#X obj 352 403 bng 15 250 50 0 empty empty empty 17 7 0 10 -262144
-1 -1;
#X msg 372 521 1 \$2 \, \$4 \$3 \$2;
#X obj 487 499 pack f f;
#X obj 531 342 bng 15 250 50 0 empty empty empty 17 7 0 10 -262144
-1 -1;
#X msg 518 544 0 \$2;
#X msg 380 400 6;
#X msg 424 399 1800;
#X msg 468 396 0.7;
#X text 381 375 A;
#X text 431 372 D;
#X text 476 369 S;
#X text 561 389 R;
#X obj 438 277 delay 2000;
#X msg 562 424 700;
#X obj 292 201 mtof;
#X floatatom 296 264 5 0 0 0 - - -, f 5;
#X floatatom 466 655 5 0 0 0 - - -, f 5;
#X obj 300 334 osc~;
#X floatatom 281 158 5 0 0 0 - - -, f 5;
#X obj 257 78 inlet;
#X obj 432 59 inlet;
#X obj 548 603 inlet;
#X connect 0 0 3 0;
#X connect 1 0 0 1;
#X connect 3 0 2 0;
#X connect 4 0 7 0;
#X connect 4 0 12 0;
#X connect 4 0 13 0;
#X connect 4 0 14 0;
#X connect 4 0 19 0;
#X connect 5 0 10 0;
#X connect 6 0 8 0;
#X connect 7 0 6 0;
#X connect 8 0 1 0;
#X connect 9 0 11 0;
#X connect 10 0 9 0;
#X connect 10 0 20 0;
#X connect 11 0 1 0;
#X connect 12 0 6 1;
#X connect 13 0 6 2;
#X connect 14 0 6 3;
#X connect 19 0 5 0;
#X connect 20 0 9 1;
#X connect 21 0 22 0;
#X connect 22 0 24 0;
#X connect 23 0 3 1;
#X connect 24 0 0 0;
#X connect 25 0 21 0;
#X connect 26 0 25 0;
#X connect 27 0 4 0;
#X connect 28 0 23 0;
#X restore 929 646 pd tone;
#N canvas 577 211 1065 782 tone 0;
#X obj 337 609 *~;
#X obj 374 584 vline~;
#X obj 362 707 dac~;
#X obj 362 661 *~;
#X obj 388 233 bng 15 250 50 0 empty empty empty 17 7 0 10 -262144
-1 -1;
#X obj 480 326 bng 15 250 50 0 empty empty empty 17 7 0 10 -262144
-1 -1;
#X obj 371 483 pack f f f f;
#X obj 352 403 bng 15 250 50 0 empty empty empty 17 7 0 10 -262144
-1 -1;
#X msg 372 521 1 \$2 \, \$4 \$3 \$2;
#X obj 487 499 pack f f;
#X obj 531 342 bng 15 250 50 0 empty empty empty 17 7 0 10 -262144
-1 -1;
#X msg 518 544 0 \$2;
#X msg 380 400 6;
#X msg 424 399 1800;
#X msg 468 396 0.7;
#X text 381 375 A;
#X text 431 372 D;
#X text 476 369 S;
#X text 561 389 R;
#X obj 438 277 delay 2000;
#X msg 562 424 700;
#X obj 292 201 mtof;
#X floatatom 296 264 5 0 0 0 - - -, f 5;
#X floatatom 466 655 5 0 0 0 - - -, f 5;
#X obj 300 334 osc~;
#X floatatom 281 158 5 0 0 0 - - -, f 5;
#X obj 257 78 inlet;
#X obj 432 59 inlet;
#X obj 548 603 inlet;
#X connect 0 0 3 0;
#X connect 1 0 0 1;
#X connect 3 0 2 0;
#X connect 4 0 7 0;
#X connect 4 0 12 0;
#X connect 4 0 13 0;
#X connect 4 0 14 0;
#X connect 4 0 19 0;
#X connect 5 0 10 0;
#X connect 6 0 8 0;
#X connect 7 0 6 0;
#X connect 8 0 1 0;
#X connect 9 0 11 0;
#X connect 10 0 9 0;
#X connect 10 0 20 0;
#X connect 11 0 1 0;
#X connect 12 0 6 1;
#X connect 13 0 6 2;
#X connect 14 0 6 3;
#X connect 19 0 5 0;
#X connect 20 0 9 1;
#X connect 21 0 22 0;
#X connect 22 0 24 0;
#X connect 23 0 3 1;
#X connect 24 0 0 0;
#X connect 25 0 21 0;
#X connect 26 0 25 0;
#X connect 27 0 4 0;
#X connect 28 0 23 0;
#X restore 813 727 pd tone;
#N canvas 577 211 1065 782 tone 0;
#X obj 337 609 *~;
#X obj 374 584 vline~;
#X obj 362 707 dac~;
#X obj 362 661 *~;
#X obj 388 233 bng 15 250 50 0 empty empty empty 17 7 0 10 -262144
-1 -1;
#X obj 480 326 bng 15 250 50 0 empty empty empty 17 7 0 10 -262144
-1 -1;
#X obj 371 483 pack f f f f;
#X obj 352 403 bng 15 250 50 0 empty empty empty 17 7 0 10 -262144
-1 -1;
#X msg 372 521 1 \$2 \, \$4 \$3 \$2;
#X obj 487 499 pack f f;
#X obj 531 342 bng 15 250 50 0 empty empty empty 17 7 0 10 -262144
-1 -1;
#X msg 518 544 0 \$2;
#X msg 380 400 6;
#X msg 424 399 1800;
#X msg 468 396 0.7;
#X text 381 375 A;
#X text 431 372 D;
#X text 476 369 S;
#X text 561 389 R;
#X obj 438 277 delay 2000;
#X msg 562 424 700;
#X obj 292 201 mtof;
#X floatatom 296 264 5 0 0 0 - - -, f 5;
#X floatatom 466 655 5 0 0 0 - - -, f 5;
#X obj 300 334 osc~;
#X floatatom 281 158 5 0 0 0 - - -, f 5;
#X obj 257 78 inlet;
#X obj 432 59 inlet;
#X obj 548 603 inlet;
#X connect 0 0 3 0;
#X connect 1 0 0 1;
#X connect 3 0 2 0;
#X connect 4 0 7 0;
#X connect 4 0 12 0;
#X connect 4 0 13 0;
#X connect 4 0 14 0;
#X connect 4 0 19 0;
#X connect 5 0 10 0;
#X connect 6 0 8 0;
#X connect 7 0 6 0;
#X connect 8 0 1 0;
#X connect 9 0 11 0;
#X connect 10 0 9 0;
#X connect 10 0 20 0;
#X connect 11 0 1 0;
#X connect 12 0 6 1;
#X connect 13 0 6 2;
#X connect 14 0 6 3;
#X connect 19 0 5 0;
#X connect 20 0 9 1;
#X connect 21 0 22 0;
#X connect 22 0 24 0;
#X connect 23 0 3 1;
#X connect 24 0 0 0;
#X connect 25 0 21 0;
#X connect 26 0 25 0;
#X connect 27 0 4 0;
#X connect 28 0 23 0;
#X restore 989 608 pd tone;
#N canvas 663 203 1065 782 tone 1;
#X obj 337 609 *~;
#X obj 374 584 vline~;
#X obj 362 707 dac~;
#X obj 362 661 *~;
#X obj 388 233 bng 15 250 50 0 empty empty empty 17 7 0 10 -262144
-1 -1;
#X obj 480 326 bng 15 250 50 0 empty empty empty 17 7 0 10 -262144
-1 -1;
#X obj 371 483 pack f f f f;
#X obj 352 403 bng 15 250 50 0 empty empty empty 17 7 0 10 -262144
-1 -1;
#X msg 372 521 1 \$2 \, \$4 \$3 \$2;
#X obj 487 499 pack f f;
#X obj 531 342 bng 15 250 50 0 empty empty empty 17 7 0 10 -262144
-1 -1;
#X msg 518 544 0 \$2;
#X msg 380 400 6;
#X msg 424 399 1800;
#X msg 468 396 0.7;
#X text 381 375 A;
#X text 431 372 D;
#X text 476 369 S;
#X text 561 389 R;
#X obj 438 277 delay 2000;
#X msg 562 424 700;
#X obj 292 225 mtof;
#X floatatom 296 288 5 0 0 0 - - -, f 5;
#X floatatom 466 655 5 0 0 0 - - -, f 5;
#X obj 300 334 osc~;
#X floatatom 309 116 5 0 0 0 - - -, f 5;
#X obj 285 59 inlet;
#X obj 548 603 inlet;
#X obj 341 151 != 0;
#X connect 0 0 3 0;
#X connect 1 0 0 1;
#X connect 3 0 2 0;
#X connect 4 0 7 0;
#X connect 4 0 12 0;
#X connect 4 0 13 0;
#X connect 4 0 14 0;
#X connect 4 0 19 0;
#X connect 5 0 10 0;
#X connect 6 0 8 0;
#X connect 7 0 6 0;
#X connect 8 0 1 0;
#X connect 9 0 11 0;
#X connect 10 0 9 0;
#X connect 10 0 20 0;
#X connect 11 0 1 0;
#X connect 12 0 6 1;
#X connect 13 0 6 2;
#X connect 14 0 6 3;
#X connect 19 0 5 0;
#X connect 20 0 9 1;
#X connect 21 0 22 0;
#X connect 22 0 24 0;
#X connect 23 0 3 1;
#X connect 24 0 0 0;
#X connect 25 0 21 0;
#X connect 25 0 28 0;
#X connect 26 0 25 0;
#X connect 27 0 23 0;
#X connect 28 0 4 0;
#X restore 876 688 pd tone;
#X obj 949 380 bng 20 250 50 0 empty empty empty 17 7 0 10 -262144
-1 -1;
#X obj 969 380 bng 20 250 50 0 empty empty empty 17 7 0 10 -262144
-1 -1;
#N canvas 577 211 1065 782 tone 0;
#X obj 337 609 *~;
#X obj 374 584 vline~;
#X obj 362 707 dac~;
#X obj 362 661 *~;
#X obj 388 233 bng 15 250 50 0 empty empty empty 17 7 0 10 -262144
-1 -1;
#X obj 480 326 bng 15 250 50 0 empty empty empty 17 7 0 10 -262144
-1 -1;
#X obj 371 483 pack f f f f;
#X obj 352 403 bng 15 250 50 0 empty empty empty 17 7 0 10 -262144
-1 -1;
#X msg 372 521 1 \$2 \, \$4 \$3 \$2;
#X obj 487 499 pack f f;
#X obj 531 342 bng 15 250 50 0 empty empty empty 17 7 0 10 -262144
-1 -1;
#X msg 518 544 0 \$2;
#X msg 380 400 6;
#X msg 424 399 1800;
#X msg 468 396 0.7;
#X text 381 375 A;
#X text 431 372 D;
#X text 476 369 S;
#X text 561 389 R;
#X obj 438 277 delay 2000;
#X msg 562 424 700;
#X obj 292 201 mtof;
#X floatatom 296 264 5 0 0 0 - - -, f 5;
#X floatatom 466 655 5 0 0 0 - - -, f 5;
#X obj 300 334 osc~;
#X floatatom 281 158 5 0 0 0 - - -, f 5;
#X obj 257 78 inlet;
#X obj 432 59 inlet;
#X obj 548 603 inlet;
#X connect 0 0 3 0;
#X connect 1 0 0 1;
#X connect 3 0 2 0;
#X connect 4 0 7 0;
#X connect 4 0 12 0;
#X connect 4 0 13 0;
#X connect 4 0 14 0;
#X connect 4 0 19 0;
#X connect 5 0 10 0;
#X connect 6 0 8 0;
#X connect 7 0 6 0;
#X connect 8 0 1 0;
#X connect 9 0 11 0;
#X connect 10 0 9 0;
#X connect 10 0 20 0;
#X connect 11 0 1 0;
#X connect 12 0 6 1;
#X connect 13 0 6 2;
#X connect 14 0 6 3;
#X connect 19 0 5 0;
#X connect 20 0 9 1;
#X connect 21 0 22 0;
#X connect 22 0 24 0;
#X connect 23 0 3 1;
#X connect 24 0 0 0;
#X connect 25 0 21 0;
#X connect 26 0 25 0;
#X connect 27 0 4 0;
#X connect 28 0 23 0;
#X restore 1049 575 pd tone;
#N canvas 577 211 1065 782 tone 0;
#X obj 337 609 *~;
#X obj 374 584 vline~;
#X obj 362 707 dac~;
#X obj 362 661 *~;
#X obj 388 233 bng 15 250 50 0 empty empty empty 17 7 0 10 -262144
-1 -1;
#X obj 480 326 bng 15 250 50 0 empty empty empty 17 7 0 10 -262144
-1 -1;
#X obj 371 483 pack f f f f;
#X obj 352 403 bng 15 250 50 0 empty empty empty 17 7 0 10 -262144
-1 -1;
#X msg 372 521 1 \$2 \, \$4 \$3 \$2;
#X obj 487 499 pack f f;
#X obj 531 342 bng 15 250 50 0 empty empty empty 17 7 0 10 -262144
-1 -1;
#X msg 518 544 0 \$2;
#X msg 380 400 6;
#X msg 424 399 1800;
#X msg 468 396 0.7;
#X text 381 375 A;
#X text 431 372 D;
#X text 476 369 S;
#X text 561 389 R;
#X obj 438 277 delay 2000;
#X msg 562 424 700;
#X obj 292 201 mtof;
#X floatatom 296 264 5 0 0 0 - - -, f 5;
#X floatatom 466 655 5 0 0 0 - - -, f 5;
#X obj 300 334 osc~;
#X floatatom 281 158 5 0 0 0 - - -, f 5;
#X obj 257 78 inlet;
#X obj 432 59 inlet;
#X obj 548 603 inlet;
#X connect 0 0 3 0;
#X connect 1 0 0 1;
#X connect 3 0 2 0;
#X connect 4 0 7 0;
#X connect 4 0 12 0;
#X connect 4 0 13 0;
#X connect 4 0 14 0;
#X connect 4 0 19 0;
#X connect 5 0 10 0;
#X connect 6 0 8 0;
#X connect 7 0 6 0;
#X connect 8 0 1 0;
#X connect 9 0 11 0;
#X connect 10 0 9 0;
#X connect 10 0 20 0;
#X connect 11 0 1 0;
#X connect 12 0 6 1;
#X connect 13 0 6 2;
#X connect 14 0 6 3;
#X connect 19 0 5 0;
#X connect 20 0 9 1;
#X connect 21 0 22 0;
#X connect 22 0 24 0;
#X connect 23 0 3 1;
#X connect 24 0 0 0;
#X connect 25 0 21 0;
#X connect 26 0 25 0;
#X connect 27 0 4 0;
#X connect 28 0 23 0;
#X restore 1155 496 pd tone;
#N canvas 577 211 1065 782 tone 0;
#X obj 337 609 *~;
#X obj 374 584 vline~;
#X obj 362 707 dac~;
#X obj 362 661 *~;
#X obj 388 233 bng 15 250 50 0 empty empty empty 17 7 0 10 -262144
-1 -1;
#X obj 480 326 bng 15 250 50 0 empty empty empty 17 7 0 10 -262144
-1 -1;
#X obj 371 483 pack f f f f;
#X obj 352 403 bng 15 250 50 0 empty empty empty 17 7 0 10 -262144
-1 -1;
#X msg 372 521 1 \$2 \, \$4 \$3 \$2;
#X obj 487 499 pack f f;
#X obj 531 342 bng 15 250 50 0 empty empty empty 17 7 0 10 -262144
-1 -1;
#X msg 518 544 0 \$2;
#X msg 380 400 6;
#X msg 424 399 1800;
#X msg 468 396 0.7;
#X text 381 375 A;
#X text 431 372 D;
#X text 476 369 S;
#X text 561 389 R;
#X obj 438 277 delay 2000;
#X msg 562 424 700;
#X obj 292 201 mtof;
#X floatatom 296 264 5 0 0 0 - - -, f 5;
#X floatatom 466 655 5 0 0 0 - - -, f 5;
#X obj 300 334 osc~;
#X floatatom 281 158 5 0 0 0 - - -, f 5;
#X obj 257 78 inlet;
#X obj 432 59 inlet;
#X obj 548 603 inlet;
#X connect 0 0 3 0;
#X connect 1 0 0 1;
#X connect 3 0 2 0;
#X connect 4 0 7 0;
#X connect 4 0 12 0;
#X connect 4 0 13 0;
#X connect 4 0 14 0;
#X connect 4 0 19 0;
#X connect 5 0 10 0;
#X connect 6 0 8 0;
#X connect 7 0 6 0;
#X connect 8 0 1 0;
#X connect 9 0 11 0;
#X connect 10 0 9 0;
#X connect 10 0 20 0;
#X connect 11 0 1 0;
#X connect 12 0 6 1;
#X connect 13 0 6 2;
#X connect 14 0 6 3;
#X connect 19 0 5 0;
#X connect 20 0 9 1;
#X connect 21 0 22 0;
#X connect 22 0 24 0;
#X connect 23 0 3 1;
#X connect 24 0 0 0;
#X connect 25 0 21 0;
#X connect 26 0 25 0;
#X connect 27 0 4 0;
#X connect 28 0 23 0;
#X restore 1097 536 pd tone;
#X obj 87 552 + 0, f 4;
#X obj 1289 485 vu 15 120 empty empty -1 -8 0 10 -66577 -1 1 0;
#X obj 162 62 vradio 20 1 0 12 empty empty empty 0 -8 0 10 -262144
-1 -1 7;
#X floatatom 37 395 5 0 0 0 - - -, f 5;
#X obj 184 62 vradio 20 1 0 12 empty empty empty 0 -8 0 10 -262144
-1 -1 4;
#X floatatom 87 392 5 0 0 0 - - -, f 5;
#X floatatom 163 674 5 0 0 0 - - -, f 5;
#X obj 148 552 + 0;
#X obj 194 548 + 0;
#X obj 231 548 + 0;
#X obj 312 541 + 0;
#X obj 381 533 + 0;
#X obj 457 522 + 0;
#X obj 517 526 + 0;
#X obj 569 510 + 0;
#X obj 206 62 vradio 20 1 0 12 empty empty empty 0 -8 0 10 -262144
-1 -1 3;
#X obj 228 62 vradio 20 1 0 12 empty empty empty 0 -8 0 10 -262144
-1 -1 7;
#X obj 250 62 vradio 20 1 0 12 empty empty empty 0 -8 0 10 -262144
-1 -1 4;
#X obj 272 62 vradio 20 1 0 12 empty empty empty 0 -8 0 10 -262144
-1 -1 7;
#X obj 294 62 vradio 20 1 0 12 empty empty empty 0 -8 0 10 -262144
-1 -1 6;
#X obj 316 62 vradio 20 1 0 12 empty empty empty 0 -8 0 10 -262144
-1 -1 1;
#X obj 339 62 vradio 20 1 0 12 empty empty empty 0 -8 0 10 -262144
-1 -1 5;
#X obj 361 62 vradio 20 1 0 12 empty empty empty 0 -8 0 10 -262144
-1 -1 8;
#X floatatom 134 387 5 0 0 0 - - -, f 5;
#X floatatom 284 381 5 0 0 0 - - -, f 5;
#X floatatom 330 379 5 0 0 0 - - -, f 5;
#X floatatom 377 381 5 0 0 0 - - -, f 5;
#X floatatom 474 379 5 0 0 0 - - -, f 5;
#X floatatom 236 386 5 0 0 0 - - -, f 5;
#X floatatom 427 379 5 0 0 0 - - -, f 5;
#X floatatom 190 386 5 0 0 0 - - -, f 5;
#X connect 0 0 34 1;
#X connect 0 0 33 2;
#X connect 0 0 35 2;
#X connect 0 0 38 2;
#X connect 0 0 40 1;
#X connect 0 0 37 2;
#X connect 0 0 39 2;
#X connect 0 0 43 2;
#X connect 0 0 45 2;
#X connect 0 0 44 2;
#X connect 2 0 35 1;
#X connect 3 0 33 1;
#X connect 4 0 38 1;
#X connect 6 0 37 1;
#X connect 7 0 39 1;
#X connect 8 0 43 1;
#X connect 9 0 2 0;
#X connect 10 0 9 0;
#X connect 11 0 3 0;
#X connect 12 0 11 0;
#X connect 13 0 4 0;
#X connect 14 0 13 0;
#X connect 15 0 5 0;
#X connect 16 0 15 0;
#X connect 17 0 6 0;
#X connect 18 0 17 0;
#X connect 19 0 7 0;
#X connect 20 0 19 0;
#X connect 21 0 8 0;
#X connect 22 0 21 0;
#X connect 23 0 10 0;
#X connect 24 0 12 0;
#X connect 25 0 14 0;
#X connect 26 0 16 0;
#X connect 27 0 18 0;
#X connect 28 0 20 0;
#X connect 29 0 22 0;
#X connect 30 0 23 0;
#X connect 30 0 24 0;
#X connect 30 0 25 0;
#X connect 30 0 26 0;
#X connect 30 0 27 0;
#X connect 30 0 28 0;
#X connect 30 0 29 0;
#X connect 31 0 30 0;
#X connect 31 0 1 0;
#X connect 31 0 36 0;
#X connect 31 0 46 0;
#X connect 31 0 53 0;
#X connect 31 0 54 0;
#X connect 31 0 55 0;
#X connect 31 0 56 0;
#X connect 31 0 57 0;
#X connect 31 0 58 0;
#X connect 31 0 59 0;
#X connect 31 0 60 0;
#X connect 32 0 0 0;
#X connect 36 0 52 0;
#X connect 41 0 45 1;
#X connect 42 0 44 1;
#X connect 46 0 35 0;
#X connect 48 0 49 0;
#X connect 49 0 36 1;
#X connect 50 0 51 0;
#X connect 51 0 46 1;
#X connect 52 0 34 0;
#X connect 53 0 33 0;
#X connect 54 0 38 0;
#X connect 55 0 40 0;
#X connect 56 0 37 0;
#X connect 57 0 39 0;
#X connect 58 0 43 0;
#X connect 59 0 45 0;
#X connect 60 0 44 0;
#X connect 61 0 69 0;
#X connect 62 0 76 0;
#X connect 63 0 74 0;
#X connect 64 0 70 0;
#X connect 65 0 71 0;
#X connect 66 0 72 0;
#X connect 67 0 75 0;
#X connect 68 0 73 0;
#X connect 69 0 53 1;
#X connect 70 0 56 1;
#X connect 71 0 57 1;
#X connect 72 0 58 1;
#X connect 73 0 60 1;
#X connect 74 0 55 1;
#X connect 75 0 59 1;
#X connect 76 0 54 1;
