#N canvas 133 140 1243 891 10;
#X obj 1146 668 vsl 15 128 0 1 0 0 empty empty empty 0 -9 0 10 -262144
-1 -1 2300 1;
#X obj 620 292 bng 20 250 50 0 empty empty empty 17 7 0 10 -262144
-1 -1;
#X obj 641 292 bng 20 250 50 0 empty empty empty 17 7 0 10 -262144
-1 -1;
#X obj 662 292 bng 20 250 50 0 empty empty empty 17 7 0 10 -262144
-1 -1;
#X obj 683 292 bng 20 250 50 0 empty empty empty 17 7 0 10 -262144
-1 -1;
#X obj 704 292 bng 20 250 50 0 empty empty empty 17 7 0 10 -262144
-1 -1;
#X obj 725 292 bng 20 250 50 0 empty empty empty 17 7 0 10 -262144
-1 -1;
#X obj 746 292 bng 20 250 50 0 empty empty empty 17 7 0 10 -262144
-1 -1;
#X obj 767 292 bng 20 250 50 0 empty empty empty 17 7 0 10 -262144
-1 -1;
#X obj 512 154 delay;
#X floatatom 514 126 5 0 0 0 - - -, f 5;
#X obj 568 155 delay;
#X floatatom 570 127 5 0 0 0 - - -, f 5;
#X obj 628 155 delay;
#X floatatom 630 127 5 0 0 0 - - -, f 5;
#X obj 687 152 delay;
#X floatatom 689 124 5 0 0 0 - - -, f 5;
#X obj 749 152 delay;
#X floatatom 751 124 5 0 0 0 - - -, f 5;
#X obj 809 152 delay;
#X floatatom 811 124 5 0 0 0 - - -, f 5;
#X obj 868 149 delay;
#X floatatom 870 121 5 0 0 0 - - -, f 5;
#X obj 513 97 * 1;
#X obj 569 98 * 2;
#X obj 629 98 * 3;
#X obj 688 95 * 4;
#X obj 756 97 * 5;
#X obj 813 97 * 6;
#X obj 869 101 * 7;
#X msg 694 35 400;
#X msg 66 51 60;
#X msg 1144 601 0;
#N canvas 577 211 1065 782 tone 0;
#X obj 337 609 *~;
#X obj 374 584 vline~;
#X obj 362 707 dac~;
#X obj 362 661 *~;
#X obj 388 233 bng 15 250 50 0 empty empty empty 17 7 0 10 -262144
-1 -1;
#X obj 480 326 bng 15 250 50 0 empty empty empty 17 7 0 10 -262144
-1 -1;
#X obj 371 483 pack f f f f;
#X obj 352 403 bng 15 250 50 0 empty empty empty 17 7 0 10 -262144
-1 -1;
#X msg 372 521 1 \$2 \, \$4 \$3 \$2;
#X obj 487 499 pack f f;
#X obj 531 342 bng 15 250 50 0 empty empty empty 17 7 0 10 -262144
-1 -1;
#X msg 518 544 0 \$2;
#X msg 380 400 6;
#X msg 424 399 1800;
#X msg 468 396 0.7;
#X text 381 375 A;
#X text 431 372 D;
#X text 476 369 S;
#X text 561 389 R;
#X obj 438 277 delay 2000;
#X msg 562 424 700;
#X obj 292 201 mtof;
#X floatatom 296 264 5 0 0 0 - - -, f 5;
#X floatatom 466 655 5 0 0 0 - - -, f 5;
#X obj 300 334 osc~;
#X floatatom 281 158 5 0 0 0 - - -, f 5;
#X obj 257 78 inlet;
#X obj 432 59 inlet;
#X obj 548 603 inlet;
#X connect 0 0 3 0;
#X connect 1 0 0 1;
#X connect 3 0 2 0;
#X connect 4 0 7 0;
#X connect 4 0 12 0;
#X connect 4 0 13 0;
#X connect 4 0 14 0;
#X connect 4 0 19 0;
#X connect 5 0 10 0;
#X connect 6 0 8 0;
#X connect 7 0 6 0;
#X connect 8 0 1 0;
#X connect 9 0 11 0;
#X connect 10 0 9 0;
#X connect 10 0 20 0;
#X connect 11 0 1 0;
#X connect 12 0 6 1;
#X connect 13 0 6 2;
#X connect 14 0 6 3;
#X connect 19 0 5 0;
#X connect 20 0 9 1;
#X connect 21 0 22 0;
#X connect 22 0 24 0;
#X connect 23 0 3 1;
#X connect 24 0 0 0;
#X connect 25 0 21 0;
#X connect 26 0 25 0;
#X connect 27 0 4 0;
#X connect 28 0 23 0;
#X restore 585 687 pd tone;
#N canvas 605 167 1065 782 tone 1;
#X obj 337 609 *~;
#X obj 374 584 vline~;
#X obj 362 707 dac~;
#X obj 362 661 *~;
#X obj 388 233 bng 15 250 50 0 empty empty empty 17 7 0 10 -262144
-1 -1;
#X obj 480 326 bng 15 250 50 0 empty empty empty 17 7 0 10 -262144
-1 -1;
#X obj 371 483 pack f f f f;
#X obj 352 403 bng 15 250 50 0 empty empty empty 17 7 0 10 -262144
-1 -1;
#X msg 372 521 1 \$2 \, \$4 \$3 \$2;
#X obj 487 499 pack f f;
#X obj 531 342 bng 15 250 50 0 empty empty empty 17 7 0 10 -262144
-1 -1;
#X msg 518 544 0 \$2;
#X msg 380 400 6;
#X msg 424 399 1800;
#X msg 468 396 0.7;
#X text 381 375 A;
#X text 431 372 D;
#X text 476 369 S;
#X text 561 389 R;
#X obj 438 277 delay 2000;
#X msg 562 424 700;
#X obj 292 201 mtof;
#X floatatom 296 264 5 0 0 0 - - -, f 5;
#X floatatom 466 655 5 0 0 0 - - -, f 5;
#X obj 300 334 osc~;
#X floatatom 281 158 5 0 0 0 - - -, f 5;
#X obj 257 78 inlet;
#X obj 432 59 inlet;
#X obj 548 603 inlet;
#X connect 0 0 3 0;
#X connect 1 0 0 1;
#X connect 3 0 2 0;
#X connect 4 0 7 0;
#X connect 4 0 12 0;
#X connect 4 0 13 0;
#X connect 4 0 14 0;
#X connect 4 0 19 0;
#X connect 5 0 10 0;
#X connect 6 0 8 0;
#X connect 7 0 6 0;
#X connect 8 0 1 0;
#X connect 9 0 11 0;
#X connect 10 0 9 0;
#X connect 10 0 20 0;
#X connect 11 0 1 0;
#X connect 12 0 6 1;
#X connect 13 0 6 2;
#X connect 14 0 6 3;
#X connect 19 0 5 0;
#X connect 20 0 9 1;
#X connect 21 0 22 0;
#X connect 22 0 24 0;
#X connect 23 0 3 1;
#X connect 24 0 0 0;
#X connect 25 0 21 0;
#X connect 26 0 25 0;
#X connect 27 0 4 0;
#X connect 28 0 23 0;
#X restore 462 771 pd tone;
#N canvas 577 211 1065 782 tone 0;
#X obj 337 609 *~;
#X obj 374 584 vline~;
#X obj 362 707 dac~;
#X obj 362 661 *~;
#X obj 388 233 bng 15 250 50 0 empty empty empty 17 7 0 10 -262144
-1 -1;
#X obj 480 326 bng 15 250 50 0 empty empty empty 17 7 0 10 -262144
-1 -1;
#X obj 371 483 pack f f f f;
#X obj 352 403 bng 15 250 50 0 empty empty empty 17 7 0 10 -262144
-1 -1;
#X msg 372 521 1 \$2 \, \$4 \$3 \$2;
#X obj 487 499 pack f f;
#X obj 531 342 bng 15 250 50 0 empty empty empty 17 7 0 10 -262144
-1 -1;
#X msg 518 544 0 \$2;
#X msg 380 400 6;
#X msg 424 399 1800;
#X msg 468 396 0.7;
#X text 381 375 A;
#X text 431 372 D;
#X text 476 369 S;
#X text 561 389 R;
#X obj 438 277 delay 2000;
#X msg 562 424 700;
#X obj 292 201 mtof;
#X floatatom 296 264 5 0 0 0 - - -, f 5;
#X floatatom 466 655 5 0 0 0 - - -, f 5;
#X obj 300 334 osc~;
#X floatatom 281 158 5 0 0 0 - - -, f 5;
#X obj 257 78 inlet;
#X obj 432 59 inlet;
#X obj 548 603 inlet;
#X connect 0 0 3 0;
#X connect 1 0 0 1;
#X connect 3 0 2 0;
#X connect 4 0 7 0;
#X connect 4 0 12 0;
#X connect 4 0 13 0;
#X connect 4 0 14 0;
#X connect 4 0 19 0;
#X connect 5 0 10 0;
#X connect 6 0 8 0;
#X connect 7 0 6 0;
#X connect 8 0 1 0;
#X connect 9 0 11 0;
#X connect 10 0 9 0;
#X connect 10 0 20 0;
#X connect 11 0 1 0;
#X connect 12 0 6 1;
#X connect 13 0 6 2;
#X connect 14 0 6 3;
#X connect 19 0 5 0;
#X connect 20 0 9 1;
#X connect 21 0 22 0;
#X connect 22 0 24 0;
#X connect 23 0 3 1;
#X connect 24 0 0 0;
#X connect 25 0 21 0;
#X connect 26 0 25 0;
#X connect 27 0 4 0;
#X connect 28 0 23 0;
#X restore 524 724 pd tone;
#X obj 487 316 + 0;
#N canvas 577 211 1065 782 tone 0;
#X obj 337 609 *~;
#X obj 374 584 vline~;
#X obj 362 707 dac~;
#X obj 362 661 *~;
#X obj 388 233 bng 15 250 50 0 empty empty empty 17 7 0 10 -262144
-1 -1;
#X obj 480 326 bng 15 250 50 0 empty empty empty 17 7 0 10 -262144
-1 -1;
#X obj 371 483 pack f f f f;
#X obj 352 403 bng 15 250 50 0 empty empty empty 17 7 0 10 -262144
-1 -1;
#X msg 372 521 1 \$2 \, \$4 \$3 \$2;
#X obj 487 499 pack f f;
#X obj 531 342 bng 15 250 50 0 empty empty empty 17 7 0 10 -262144
-1 -1;
#X msg 518 544 0 \$2;
#X msg 380 400 6;
#X msg 424 399 1800;
#X msg 468 396 0.7;
#X text 381 375 A;
#X text 431 372 D;
#X text 476 369 S;
#X text 561 389 R;
#X obj 438 277 delay 2000;
#X msg 562 424 700;
#X obj 292 201 mtof;
#X floatatom 296 264 5 0 0 0 - - -, f 5;
#X floatatom 466 655 5 0 0 0 - - -, f 5;
#X obj 300 334 osc~;
#X floatatom 281 158 5 0 0 0 - - -, f 5;
#X obj 257 78 inlet;
#X obj 432 59 inlet;
#X obj 548 603 inlet;
#X connect 0 0 3 0;
#X connect 1 0 0 1;
#X connect 3 0 2 0;
#X connect 4 0 7 0;
#X connect 4 0 12 0;
#X connect 4 0 13 0;
#X connect 4 0 14 0;
#X connect 4 0 19 0;
#X connect 5 0 10 0;
#X connect 6 0 8 0;
#X connect 7 0 6 0;
#X connect 8 0 1 0;
#X connect 9 0 11 0;
#X connect 10 0 9 0;
#X connect 10 0 20 0;
#X connect 11 0 1 0;
#X connect 12 0 6 1;
#X connect 13 0 6 2;
#X connect 14 0 6 3;
#X connect 19 0 5 0;
#X connect 20 0 9 1;
#X connect 21 0 22 0;
#X connect 22 0 24 0;
#X connect 23 0 3 1;
#X connect 24 0 0 0;
#X connect 25 0 21 0;
#X connect 26 0 25 0;
#X connect 27 0 4 0;
#X connect 28 0 23 0;
#X restore 768 558 pd tone;
#N canvas 577 211 1065 782 tone 0;
#X obj 337 609 *~;
#X obj 374 584 vline~;
#X obj 362 707 dac~;
#X obj 362 661 *~;
#X obj 388 233 bng 15 250 50 0 empty empty empty 17 7 0 10 -262144
-1 -1;
#X obj 480 326 bng 15 250 50 0 empty empty empty 17 7 0 10 -262144
-1 -1;
#X obj 371 483 pack f f f f;
#X obj 352 403 bng 15 250 50 0 empty empty empty 17 7 0 10 -262144
-1 -1;
#X msg 372 521 1 \$2 \, \$4 \$3 \$2;
#X obj 487 499 pack f f;
#X obj 531 342 bng 15 250 50 0 empty empty empty 17 7 0 10 -262144
-1 -1;
#X msg 518 544 0 \$2;
#X msg 380 400 6;
#X msg 424 399 1800;
#X msg 468 396 0.7;
#X text 381 375 A;
#X text 431 372 D;
#X text 476 369 S;
#X text 561 389 R;
#X obj 438 277 delay 2000;
#X msg 562 424 700;
#X obj 292 201 mtof;
#X floatatom 296 264 5 0 0 0 - - -, f 5;
#X floatatom 466 655 5 0 0 0 - - -, f 5;
#X obj 300 334 osc~;
#X floatatom 281 158 5 0 0 0 - - -, f 5;
#X obj 257 78 inlet;
#X obj 432 59 inlet;
#X obj 548 603 inlet;
#X connect 0 0 3 0;
#X connect 1 0 0 1;
#X connect 3 0 2 0;
#X connect 4 0 7 0;
#X connect 4 0 12 0;
#X connect 4 0 13 0;
#X connect 4 0 14 0;
#X connect 4 0 19 0;
#X connect 5 0 10 0;
#X connect 6 0 8 0;
#X connect 7 0 6 0;
#X connect 8 0 1 0;
#X connect 9 0 11 0;
#X connect 10 0 9 0;
#X connect 10 0 20 0;
#X connect 11 0 1 0;
#X connect 12 0 6 1;
#X connect 13 0 6 2;
#X connect 14 0 6 3;
#X connect 19 0 5 0;
#X connect 20 0 9 1;
#X connect 21 0 22 0;
#X connect 22 0 24 0;
#X connect 23 0 3 1;
#X connect 24 0 0 0;
#X connect 25 0 21 0;
#X connect 26 0 25 0;
#X connect 27 0 4 0;
#X connect 28 0 23 0;
#X restore 652 639 pd tone;
#N canvas 577 211 1065 782 tone 0;
#X obj 337 609 *~;
#X obj 374 584 vline~;
#X obj 362 707 dac~;
#X obj 362 661 *~;
#X obj 388 233 bng 15 250 50 0 empty empty empty 17 7 0 10 -262144
-1 -1;
#X obj 480 326 bng 15 250 50 0 empty empty empty 17 7 0 10 -262144
-1 -1;
#X obj 371 483 pack f f f f;
#X obj 352 403 bng 15 250 50 0 empty empty empty 17 7 0 10 -262144
-1 -1;
#X msg 372 521 1 \$2 \, \$4 \$3 \$2;
#X obj 487 499 pack f f;
#X obj 531 342 bng 15 250 50 0 empty empty empty 17 7 0 10 -262144
-1 -1;
#X msg 518 544 0 \$2;
#X msg 380 400 6;
#X msg 424 399 1800;
#X msg 468 396 0.7;
#X text 381 375 A;
#X text 431 372 D;
#X text 476 369 S;
#X text 561 389 R;
#X obj 438 277 delay 2000;
#X msg 562 424 700;
#X obj 292 201 mtof;
#X floatatom 296 264 5 0 0 0 - - -, f 5;
#X floatatom 466 655 5 0 0 0 - - -, f 5;
#X obj 300 334 osc~;
#X floatatom 281 158 5 0 0 0 - - -, f 5;
#X obj 257 78 inlet;
#X obj 432 59 inlet;
#X obj 548 603 inlet;
#X connect 0 0 3 0;
#X connect 1 0 0 1;
#X connect 3 0 2 0;
#X connect 4 0 7 0;
#X connect 4 0 12 0;
#X connect 4 0 13 0;
#X connect 4 0 14 0;
#X connect 4 0 19 0;
#X connect 5 0 10 0;
#X connect 6 0 8 0;
#X connect 7 0 6 0;
#X connect 8 0 1 0;
#X connect 9 0 11 0;
#X connect 10 0 9 0;
#X connect 10 0 20 0;
#X connect 11 0 1 0;
#X connect 12 0 6 1;
#X connect 13 0 6 2;
#X connect 14 0 6 3;
#X connect 19 0 5 0;
#X connect 20 0 9 1;
#X connect 21 0 22 0;
#X connect 22 0 24 0;
#X connect 23 0 3 1;
#X connect 24 0 0 0;
#X connect 25 0 21 0;
#X connect 26 0 25 0;
#X connect 27 0 4 0;
#X connect 28 0 23 0;
#X restore 828 520 pd tone;
#N canvas 577 211 1065 782 tone 0;
#X obj 337 609 *~;
#X obj 374 584 vline~;
#X obj 362 707 dac~;
#X obj 362 661 *~;
#X obj 388 233 bng 15 250 50 0 empty empty empty 17 7 0 10 -262144
-1 -1;
#X obj 480 326 bng 15 250 50 0 empty empty empty 17 7 0 10 -262144
-1 -1;
#X obj 371 483 pack f f f f;
#X obj 352 403 bng 15 250 50 0 empty empty empty 17 7 0 10 -262144
-1 -1;
#X msg 372 521 1 \$2 \, \$4 \$3 \$2;
#X obj 487 499 pack f f;
#X obj 531 342 bng 15 250 50 0 empty empty empty 17 7 0 10 -262144
-1 -1;
#X msg 518 544 0 \$2;
#X msg 380 400 6;
#X msg 424 399 1800;
#X msg 468 396 0.7;
#X text 381 375 A;
#X text 431 372 D;
#X text 476 369 S;
#X text 561 389 R;
#X obj 438 277 delay 2000;
#X msg 562 424 700;
#X obj 292 201 mtof;
#X floatatom 296 264 5 0 0 0 - - -, f 5;
#X floatatom 466 655 5 0 0 0 - - -, f 5;
#X obj 300 334 osc~;
#X floatatom 281 158 5 0 0 0 - - -, f 5;
#X obj 257 78 inlet;
#X obj 432 59 inlet;
#X obj 548 603 inlet;
#X connect 0 0 3 0;
#X connect 1 0 0 1;
#X connect 3 0 2 0;
#X connect 4 0 7 0;
#X connect 4 0 12 0;
#X connect 4 0 13 0;
#X connect 4 0 14 0;
#X connect 4 0 19 0;
#X connect 5 0 10 0;
#X connect 6 0 8 0;
#X connect 7 0 6 0;
#X connect 8 0 1 0;
#X connect 9 0 11 0;
#X connect 10 0 9 0;
#X connect 10 0 20 0;
#X connect 11 0 1 0;
#X connect 12 0 6 1;
#X connect 13 0 6 2;
#X connect 14 0 6 3;
#X connect 19 0 5 0;
#X connect 20 0 9 1;
#X connect 21 0 22 0;
#X connect 22 0 24 0;
#X connect 23 0 3 1;
#X connect 24 0 0 0;
#X connect 25 0 21 0;
#X connect 26 0 25 0;
#X connect 27 0 4 0;
#X connect 28 0 23 0;
#X restore 715 600 pd tone;
#X obj 788 292 bng 20 250 50 0 empty empty empty 17 7 0 10 -262144
-1 -1;
#X obj 808 292 bng 20 250 50 0 empty empty empty 17 7 0 10 -262144
-1 -1;
#N canvas 577 211 1065 782 tone 0;
#X obj 337 609 *~;
#X obj 374 584 vline~;
#X obj 362 707 dac~;
#X obj 362 661 *~;
#X obj 388 233 bng 15 250 50 0 empty empty empty 17 7 0 10 -262144
-1 -1;
#X obj 480 326 bng 15 250 50 0 empty empty empty 17 7 0 10 -262144
-1 -1;
#X obj 371 483 pack f f f f;
#X obj 352 403 bng 15 250 50 0 empty empty empty 17 7 0 10 -262144
-1 -1;
#X msg 372 521 1 \$2 \, \$4 \$3 \$2;
#X obj 487 499 pack f f;
#X obj 531 342 bng 15 250 50 0 empty empty empty 17 7 0 10 -262144
-1 -1;
#X msg 518 544 0 \$2;
#X msg 380 400 6;
#X msg 424 399 1800;
#X msg 468 396 0.7;
#X text 381 375 A;
#X text 431 372 D;
#X text 476 369 S;
#X text 561 389 R;
#X obj 438 277 delay 2000;
#X msg 562 424 700;
#X obj 292 201 mtof;
#X floatatom 296 264 5 0 0 0 - - -, f 5;
#X floatatom 466 655 5 0 0 0 - - -, f 5;
#X obj 300 334 osc~;
#X floatatom 281 158 5 0 0 0 - - -, f 5;
#X obj 257 78 inlet;
#X obj 432 59 inlet;
#X obj 548 603 inlet;
#X connect 0 0 3 0;
#X connect 1 0 0 1;
#X connect 3 0 2 0;
#X connect 4 0 7 0;
#X connect 4 0 12 0;
#X connect 4 0 13 0;
#X connect 4 0 14 0;
#X connect 4 0 19 0;
#X connect 5 0 10 0;
#X connect 6 0 8 0;
#X connect 7 0 6 0;
#X connect 8 0 1 0;
#X connect 9 0 11 0;
#X connect 10 0 9 0;
#X connect 10 0 20 0;
#X connect 11 0 1 0;
#X connect 12 0 6 1;
#X connect 13 0 6 2;
#X connect 14 0 6 3;
#X connect 19 0 5 0;
#X connect 20 0 9 1;
#X connect 21 0 22 0;
#X connect 22 0 24 0;
#X connect 23 0 3 1;
#X connect 24 0 0 0;
#X connect 25 0 21 0;
#X connect 26 0 25 0;
#X connect 27 0 4 0;
#X connect 28 0 23 0;
#X restore 888 487 pd tone;
#N canvas 577 211 1065 782 tone 0;
#X obj 337 609 *~;
#X obj 374 584 vline~;
#X obj 362 707 dac~;
#X obj 362 661 *~;
#X obj 388 233 bng 15 250 50 0 empty empty empty 17 7 0 10 -262144
-1 -1;
#X obj 480 326 bng 15 250 50 0 empty empty empty 17 7 0 10 -262144
-1 -1;
#X obj 371 483 pack f f f f;
#X obj 352 403 bng 15 250 50 0 empty empty empty 17 7 0 10 -262144
-1 -1;
#X msg 372 521 1 \$2 \, \$4 \$3 \$2;
#X obj 487 499 pack f f;
#X obj 531 342 bng 15 250 50 0 empty empty empty 17 7 0 10 -262144
-1 -1;
#X msg 518 544 0 \$2;
#X msg 380 400 6;
#X msg 424 399 1800;
#X msg 468 396 0.7;
#X text 381 375 A;
#X text 431 372 D;
#X text 476 369 S;
#X text 561 389 R;
#X obj 438 277 delay 2000;
#X msg 562 424 700;
#X obj 292 201 mtof;
#X floatatom 296 264 5 0 0 0 - - -, f 5;
#X floatatom 466 655 5 0 0 0 - - -, f 5;
#X obj 300 334 osc~;
#X floatatom 281 158 5 0 0 0 - - -, f 5;
#X obj 257 78 inlet;
#X obj 432 59 inlet;
#X obj 548 603 inlet;
#X connect 0 0 3 0;
#X connect 1 0 0 1;
#X connect 3 0 2 0;
#X connect 4 0 7 0;
#X connect 4 0 12 0;
#X connect 4 0 13 0;
#X connect 4 0 14 0;
#X connect 4 0 19 0;
#X connect 5 0 10 0;
#X connect 6 0 8 0;
#X connect 7 0 6 0;
#X connect 8 0 1 0;
#X connect 9 0 11 0;
#X connect 10 0 9 0;
#X connect 10 0 20 0;
#X connect 11 0 1 0;
#X connect 12 0 6 1;
#X connect 13 0 6 2;
#X connect 14 0 6 3;
#X connect 19 0 5 0;
#X connect 20 0 9 1;
#X connect 21 0 22 0;
#X connect 22 0 24 0;
#X connect 23 0 3 1;
#X connect 24 0 0 0;
#X connect 25 0 21 0;
#X connect 26 0 25 0;
#X connect 27 0 4 0;
#X connect 28 0 23 0;
#X restore 1046 452 pd tone;
#N canvas 577 211 1065 782 tone 0;
#X obj 337 609 *~;
#X obj 374 584 vline~;
#X obj 362 707 dac~;
#X obj 362 661 *~;
#X obj 388 233 bng 15 250 50 0 empty empty empty 17 7 0 10 -262144
-1 -1;
#X obj 480 326 bng 15 250 50 0 empty empty empty 17 7 0 10 -262144
-1 -1;
#X obj 371 483 pack f f f f;
#X obj 352 403 bng 15 250 50 0 empty empty empty 17 7 0 10 -262144
-1 -1;
#X msg 372 521 1 \$2 \, \$4 \$3 \$2;
#X obj 487 499 pack f f;
#X obj 531 342 bng 15 250 50 0 empty empty empty 17 7 0 10 -262144
-1 -1;
#X msg 518 544 0 \$2;
#X msg 380 400 6;
#X msg 424 399 1800;
#X msg 468 396 0.7;
#X text 381 375 A;
#X text 431 372 D;
#X text 476 369 S;
#X text 561 389 R;
#X obj 438 277 delay 2000;
#X msg 562 424 700;
#X obj 292 201 mtof;
#X floatatom 296 264 5 0 0 0 - - -, f 5;
#X floatatom 466 655 5 0 0 0 - - -, f 5;
#X obj 300 334 osc~;
#X floatatom 281 158 5 0 0 0 - - -, f 5;
#X obj 257 78 inlet;
#X obj 432 59 inlet;
#X obj 548 603 inlet;
#X connect 0 0 3 0;
#X connect 1 0 0 1;
#X connect 3 0 2 0;
#X connect 4 0 7 0;
#X connect 4 0 12 0;
#X connect 4 0 13 0;
#X connect 4 0 14 0;
#X connect 4 0 19 0;
#X connect 5 0 10 0;
#X connect 6 0 8 0;
#X connect 7 0 6 0;
#X connect 8 0 1 0;
#X connect 9 0 11 0;
#X connect 10 0 9 0;
#X connect 10 0 20 0;
#X connect 11 0 1 0;
#X connect 12 0 6 1;
#X connect 13 0 6 2;
#X connect 14 0 6 3;
#X connect 19 0 5 0;
#X connect 20 0 9 1;
#X connect 21 0 22 0;
#X connect 22 0 24 0;
#X connect 23 0 3 1;
#X connect 24 0 0 0;
#X connect 25 0 21 0;
#X connect 26 0 25 0;
#X connect 27 0 4 0;
#X connect 28 0 23 0;
#X restore 988 492 pd tone;
#X obj 620 329 bng 20 250 50 0 empty empty empty 17 7 0 10 -262144
-1 -1;
#X obj 641 329 bng 20 250 50 0 empty empty empty 17 7 0 10 -262144
-1 -1;
#X obj 662 329 bng 20 250 50 0 empty empty empty 17 7 0 10 -262144
-1 -1;
#X obj 683 329 bng 20 250 50 0 empty empty empty 17 7 0 10 -262144
-1 -1;
#X obj 704 329 bng 20 250 50 0 empty empty empty 17 7 0 10 -262144
-1 -1;
#X obj 725 329 bng 20 250 50 0 empty empty empty 17 7 0 10 -262144
-1 -1;
#X obj 746 329 bng 20 250 50 0 empty empty empty 17 7 0 10 -262144
-1 -1;
#X obj 767 329 bng 20 250 50 0 empty empty empty 17 7 0 10 -262144
-1 -1;
#X obj 788 329 bng 20 250 50 0 empty empty empty 17 7 0 10 -262144
-1 -1;
#X obj 808 329 bng 20 250 50 0 empty empty empty 17 7 0 10 -262144
-1 -1;
#X obj 620 363 bng 20 250 50 0 empty empty empty 17 7 0 10 -262144
-1 -1;
#X obj 641 363 bng 20 250 50 0 empty empty empty 17 7 0 10 -262144
-1 -1;
#X obj 662 363 bng 20 250 50 0 empty empty empty 17 7 0 10 -262144
-1 -1;
#X obj 683 363 bng 20 250 50 0 empty empty empty 17 7 0 10 -262144
-1 -1;
#X obj 704 363 bng 20 250 50 0 empty empty empty 17 7 0 10 -262144
-1 -1;
#X obj 725 363 bng 20 250 50 0 empty empty empty 17 7 0 10 -262144
-1 -1;
#X obj 746 363 bng 20 250 50 0 empty empty empty 17 7 0 10 -262144
-1 -1;
#X obj 767 363 bng 20 250 50 0 empty empty empty 17 7 0 10 -262144
-1 -1;
#X obj 788 363 bng 20 250 50 0 empty empty empty 17 7 0 10 -262144
-1 -1;
#X obj 808 363 bng 20 250 50 0 empty empty empty 17 7 0 10 -262144
-1 -1;
#X connect 0 0 34 2;
#X connect 0 0 33 2;
#X connect 0 0 35 2;
#X connect 0 0 38 2;
#X connect 0 0 40 2;
#X connect 0 0 37 2;
#X connect 0 0 39 2;
#X connect 0 0 43 2;
#X connect 0 0 45 2;
#X connect 0 0 44 2;
#X connect 9 0 2 0;
#X connect 10 0 9 0;
#X connect 11 0 3 0;
#X connect 12 0 11 0;
#X connect 13 0 4 0;
#X connect 14 0 13 0;
#X connect 15 0 5 0;
#X connect 16 0 15 0;
#X connect 17 0 6 0;
#X connect 18 0 17 0;
#X connect 19 0 7 0;
#X connect 20 0 19 0;
#X connect 21 0 8 0;
#X connect 22 0 21 0;
#X connect 23 0 10 0;
#X connect 24 0 12 0;
#X connect 25 0 14 0;
#X connect 26 0 16 0;
#X connect 27 0 18 0;
#X connect 28 0 20 0;
#X connect 29 0 22 0;
#X connect 30 0 23 0;
#X connect 30 0 24 0;
#X connect 30 0 25 0;
#X connect 30 0 26 0;
#X connect 30 0 27 0;
#X connect 30 0 28 0;
#X connect 30 0 29 0;
#X connect 31 0 30 0;
#X connect 31 0 1 0;
#X connect 32 0 0 0;
